<svg xmlns="http://www.w3.org/2000/svg" xmlns:xlink="http://www.w3.org/1999/xlink" viewBox="0 0 123.8 123.8"><defs><style>.cls-1{fill:url(#linear-gradient);}.cls-2,.cls-3{fill:none;stroke:#fff;stroke-miterlimit:10;stroke-width:2.63px;}.cls-2{stroke-linecap:square;}</style><linearGradient id="linear-gradient" x1="123.8" y1="123.8" x2="0.8" y2="0.8" gradientUnits="userSpaceOnUse"><stop offset="0.17" stop-color="#9ff66a"/><stop offset="0.19" stop-color="#9df36e"/><stop offset="0.44" stop-color="#7dc9a6"/><stop offset="0.66" stop-color="#66aacf"/><stop offset="0.83" stop-color="#5897e9"/><stop offset="0.94" stop-color="#5390f2"/></linearGradient></defs><title>Artboard 17</title><g id="Icons"><rect class="cls-1" width="123.8" height="123.8"/><g id="_14" data-name="14"><polyline class="cls-2" points="61.85 85.35 36.87 85.35 36.87 25.7 72.12 25.7 72.12 52.03"/><line class="cls-2" x1="36.87" y1="74.08" x2="57.69" y2="74.08"/><line class="cls-2" x1="53.76" y1="79.89" x2="55.24" y2="79.89"/><line class="cls-2" x1="51.3" y1="31.85" x2="57.69" y2="31.85"/><path class="cls-2" d="M70.41,90.24V86.38c-4.18-1.51-7.74-8.61-7.41-12.84l-3-6.43a6.6,6.6,0,0,1,.81-6.89l.75-.94a1.88,1.88,0,0,1,3.14.28l5,9.32a1.27,1.27,0,0,0,2.42-.55V52l7.74,6.16a6,6,0,0,1,1.71,2.18A52.82,52.82,0,0,1,85.69,86"/><rect class="cls-2" x="68.42" y="91.06" width="18.52" height="7.05"/><path class="cls-3" d="M64.68,59.49a10.7,10.7,0,0,0,.75-4A10.93,10.93,0,1,0,54.5,66.45a10.8,10.8,0,0,0,5-1.2"/><polygon class="cls-3" points="59.51 55.53 51.92 51.14 51.92 59.91 59.51 55.53"/></g></g></svg>