<svg xmlns="http://www.w3.org/2000/svg" xmlns:xlink="http://www.w3.org/1999/xlink" viewBox="0 0 123.8 123.8"><defs><style>.cls-1{fill:url(#linear-gradient);}.cls-2{fill:none;stroke:#fff;stroke-linecap:square;stroke-miterlimit:10;stroke-width:2.63px;}</style><linearGradient id="linear-gradient" x1="123.8" y1="123.8" x2="0.8" y2="0.8" gradientUnits="userSpaceOnUse"><stop offset="0.17" stop-color="#9ff66a"/><stop offset="0.19" stop-color="#9df36e"/><stop offset="0.44" stop-color="#7dc9a6"/><stop offset="0.66" stop-color="#66aacf"/><stop offset="0.83" stop-color="#5897e9"/><stop offset="0.94" stop-color="#5390f2"/></linearGradient></defs><title>Artboard 12</title><g id="Icons"><rect class="cls-1" width="123.8" height="123.8"/><g id="_9" data-name="9"><path class="cls-2" d="M68.22,89.42H78.9a6.65,6.65,0,0,0,6.65-6.65v-1.9"/><polyline class="cls-2" points="40.38 98.58 40.38 89.42 40.38 71.8"/><line class="cls-2" x1="68.22" y1="89.42" x2="68.22" y2="98.58"/><path class="cls-2" d="M36.2,65.2a25.86,25.86,0,0,1-3.05-12.54c0-13.85,10.78-26,24.57-27.31A27.28,27.28,0,0,1,85.2,41c.14.28.27.57.39.86"/><path class="cls-2" d="M77.77,75.8h7A2.83,2.83,0,0,0,87.55,73v-.86l0-2.3"/><path class="cls-2" d="M64.88,59.42v7l18.05,2.68a6.48,6.48,0,0,0,4.66-1.07,7,7,0,0,0,3.07-5.83V49.61A6.94,6.94,0,0,0,86.07,43a6.36,6.36,0,0,0-3.14-.31L64.88,45.39v2.75"/><polyline class="cls-2" points="35.1 59.43 68.38 59.43 68.38 52.43 38 52.43"/></g></g></svg>