<svg xmlns="http://www.w3.org/2000/svg" xmlns:xlink="http://www.w3.org/1999/xlink" viewBox="0 0 123.8 123.8"><defs><style>.cls-1{fill:url(#linear-gradient);}.cls-2{fill:none;stroke:#fff;stroke-linecap:square;stroke-miterlimit:10;stroke-width:2.63px;}</style><linearGradient id="linear-gradient" x1="123.8" y1="123.8" x2="0.8" y2="0.8" gradientUnits="userSpaceOnUse"><stop offset="0.17" stop-color="#9ff66a"/><stop offset="0.19" stop-color="#9df36e"/><stop offset="0.44" stop-color="#7dc9a6"/><stop offset="0.66" stop-color="#66aacf"/><stop offset="0.83" stop-color="#5897e9"/><stop offset="0.94" stop-color="#5390f2"/></linearGradient></defs><title>Artboard 8</title><g id="Icons"><rect class="cls-1" width="123.8" height="123.8"/><g id="_5" data-name="5"><path class="cls-2" d="M66.42,55.94c0,2.49-4.52,4.51-4.52,4.51s-4.51-2-4.51-4.51a4.52,4.52,0,1,1,9,0Z"/><path class="cls-2" d="M66.26,63.36a4.44,4.44,0,0,1,1.52,3,5.88,5.88,0,0,1-11.76,0c0-3.25,5.4-5.64,5.88-5.88"/><path class="cls-2" d="M76.16,52.26a17.19,17.19,0,1,1-4-4.22"/><circle class="cls-2" cx="61.9" cy="61.9" r="31.84"/><path class="cls-2" d="M39.46,48.94a26,26,0,0,1,10.09-9.82"/></g></g></svg>