<svg xmlns="http://www.w3.org/2000/svg" xmlns:xlink="http://www.w3.org/1999/xlink" viewBox="0 0 123.8 123.8"><defs><style>.cls-1{fill:url(#linear-gradient);}.cls-2{fill:none;stroke:#fff;stroke-linecap:square;stroke-miterlimit:10;stroke-width:2.63px;}</style><linearGradient id="linear-gradient" x1="123.8" y1="123.8" x2="0.8" y2="0.8" gradientUnits="userSpaceOnUse"><stop offset="0.17" stop-color="#9ff66a"/><stop offset="0.19" stop-color="#9df36e"/><stop offset="0.44" stop-color="#7dc9a6"/><stop offset="0.66" stop-color="#66aacf"/><stop offset="0.83" stop-color="#5897e9"/><stop offset="0.94" stop-color="#5390f2"/></linearGradient></defs><title>Artboard 14</title><g id="Icons"><rect class="cls-1" width="123.8" height="123.8"/><g id="_11" data-name="11"><g id="_4" data-name="4"><path class="cls-2" d="M17.5,46.52V58.38a2.73,2.73,0,0,0,2.73,2.73h0A2.49,2.49,0,0,1,22.68,64l-4.54,25a3,3,0,0,0,2.95,3.53H32.57a3,3,0,0,0,3-2.47l5.26-29H80.71V41H17.5"/><line class="cls-2" x1="27.25" y1="84.09" x2="19.36" y2="84.09"/><line class="cls-2" x1="28.59" y1="77.77" x2="20.93" y2="77.77"/><line class="cls-2" x1="29.5" y1="71.45" x2="22.53" y2="71.45"/><path class="cls-2" d="M39.34,71.55h7.91A4.81,4.81,0,0,0,52,67.68l.41-2"/><path class="cls-2" d="M41.51,61.65s.27,3.84,5.43,5.08"/><polyline class="cls-2" points="42.83 41.01 61.39 41.01 61.39 46.52 42.83 46.52"/><line class="cls-2" x1="26.02" y1="54.96" x2="80.27" y2="54.96"/><polyline class="cls-2" points="72.61 37.12 80.71 37.12 80.71 41.01 72.61 41.01"/></g><polyline class="cls-2" points="86.78 63.86 93.38 69.85 93.18 60.29 102.76 62.43 97.02 54.55 106.3 50.14 96.71 46.39 102.68 38.18 92.4 40.59 92.86 31.2 85.83 38.22"/></g></g></svg>