<svg xmlns="http://www.w3.org/2000/svg" xmlns:xlink="http://www.w3.org/1999/xlink" viewBox="0 0 123.8 123.8"><defs><style>.cls-1{fill:url(#linear-gradient);}.cls-2{fill:none;stroke:#fff;stroke-linecap:square;stroke-miterlimit:10;stroke-width:2.63px;}</style><linearGradient id="linear-gradient" x1="123.8" y1="123.8" x2="0.8" y2="0.8" gradientUnits="userSpaceOnUse"><stop offset="0.17" stop-color="#9ff66a"/><stop offset="0.19" stop-color="#9df36e"/><stop offset="0.44" stop-color="#7dc9a6"/><stop offset="0.66" stop-color="#66aacf"/><stop offset="0.83" stop-color="#5897e9"/><stop offset="0.94" stop-color="#5390f2"/></linearGradient></defs><title>Artboard 6</title><g id="Icons"><rect class="cls-1" width="123.8" height="123.8"/><g id="_3" data-name="3"><path class="cls-2" d="M43.69,69.37A67.22,67.22,0,0,1,33,81S18.5,69.33,18.5,59.86c0-4.47,3.34-8.12,7.46-8.12a7.52,7.52,0,0,1,7,5.36,7.84,7.84,0,0,1,4.49-4.88"/><path class="cls-2" d="M25.45,64.68a45.15,45.15,0,0,0,4.75,6.18"/><path class="cls-2" d="M52.08,59.66a58.34,58.34,0,0,0,6.2,8.08"/><path class="cls-2" d="M77.14,63.92c2.16-3.54,3.67-7.21,3.67-10.55l0-.92c-.43-5.43-4.61-9.69-9.71-9.69a9.83,9.83,0,0,0-9.16,7,9.83,9.83,0,0,0-9.16-7c-5.09,0-9.29,4.26-9.7,9.7a9,9,0,0,0,0,.91c0,3.44,1.46,7.12,3.58,10.63C52.07,73.08,61.9,81,61.9,81s9.73-8.15,15.24-17.12"/><path class="cls-2" d="M86.13,52.14a7.84,7.84,0,0,1,4.7,5,7.54,7.54,0,0,1,7-5.36c4.12,0,7.46,3.65,7.46,8.12C105.3,68.93,90.83,81,90.83,81A62.35,62.35,0,0,1,80,69.41"/><path class="cls-2" d="M83.32,64.68a45.15,45.15,0,0,0,4.75,6.18"/></g></g></svg>