<svg xmlns="http://www.w3.org/2000/svg" viewBox="0 0 123.8 123.8"><defs><style>.cls-1{fill:none;stroke:#fff;stroke-miterlimit:10;stroke-width:2.63px;}</style></defs><title>Artboard 11</title><g id="Icons"><g id="_8" data-name="8"><line class="cls-1" x1="81.03" y1="72.24" x2="70.7" y2="61.9"/><line class="cls-1" x1="69.94" y1="78.73" x2="61.91" y2="70.7"/><polyline class="cls-1" points="53.12 61.91 30.34 39.13 29.07 29.08 39.13 30.34 59.19 50.39"/><line class="cls-1" x1="71.86" y1="71.86" x2="66.3" y2="66.3"/><line class="cls-1" x1="57.51" y1="57.51" x2="35.45" y2="35.45"/><rect class="cls-1" x="65.67" y="75.97" width="27.5" height="6.89" transform="translate(-32.9 79.42) rotate(-45)"/><path class="cls-1" d="M87.1,81.6l6.49,6.5a3.87,3.87,0,0,1,0,5.49h0a3.87,3.87,0,0,1-5.49,0l-9-9,5.49-5.49"/><line class="cls-1" x1="83.08" y1="88.57" x2="86.04" y2="85.6"/><line class="cls-1" x1="86.13" y1="91.62" x2="89.09" y2="88.65"/><polyline class="cls-1" points="53.87 78.73 93.47 39.13 94.73 29.08 84.68 30.34 42.78 72.23"/><line class="cls-1" x1="88.36" y1="35.44" x2="51.95" y2="71.86"/><rect class="cls-1" x="30.64" y="75.97" width="27.5" height="6.89" transform="translate(19.61 166.96) rotate(-135)"/><path class="cls-1" d="M36.71,81.6l-6.5,6.5a3.89,3.89,0,0,0,0,5.49h0a3.87,3.87,0,0,0,5.49,0l9-9-5.5-5.49"/><line class="cls-1" x1="40.73" y1="88.57" x2="37.76" y2="85.6"/><line class="cls-1" x1="37.68" y1="91.62" x2="34.71" y2="88.65"/></g></g></svg>