<svg xmlns="http://www.w3.org/2000/svg" viewBox="0 0 123.8 123.8"><defs><style>.cls-1{fill:none;stroke:#fff;stroke-linecap:square;stroke-miterlimit:10;stroke-width:2.63px;}</style></defs><title>Artboard 8</title><g id="Icons"><g id="_5" data-name="5"><path class="cls-1" d="M66.42,55.94c0,2.49-4.52,4.51-4.52,4.51s-4.51-2-4.51-4.51a4.52,4.52,0,1,1,9,0Z"/><path class="cls-1" d="M66.26,63.36a4.44,4.44,0,0,1,1.52,3,5.88,5.88,0,0,1-11.76,0c0-3.25,5.4-5.64,5.88-5.88"/><path class="cls-1" d="M76.16,52.26a17.19,17.19,0,1,1-4-4.22"/><circle class="cls-1" cx="61.9" cy="61.9" r="31.84"/><path class="cls-1" d="M39.46,48.94a26,26,0,0,1,10.09-9.82"/></g></g></svg>