<svg xmlns="http://www.w3.org/2000/svg" viewBox="0 0 123.8 123.8"><defs><style>.cls-1{fill:none;stroke:#fff;stroke-linecap:square;stroke-miterlimit:10;stroke-width:2.63px;}</style></defs><title>Artboard 9</title><g id="Icons"><g id="_6" data-name="6"><path class="cls-1" d="M67.66,53.25v-16l1.44-3.53H54.72l1.43,3.53v16a22.84,22.84,0,1,0,11.51,0Z"/><path class="cls-1" d="M44.63,70.54c2.16,0,2.16,2.15,4.31,2.15s2.16-2.15,4.32-2.15,2.16,2.15,4.32,2.15,2.16-2.15,4.31-2.15,2.16,2.15,4.32,2.15,2.16-2.15,4.32-2.15,2.16,2.15,4.32,2.15,2.16-2.15,4.33-2.15"/><polyline class="cls-1" points="66.66 29.34 67.27 25.64 56.55 25.64 57.16 29.34"/><path class="cls-1" d="M56.64,91A16.14,16.14,0,0,1,46.39,80.13"/></g></g></svg>