<svg xmlns="http://www.w3.org/2000/svg" xmlns:xlink="http://www.w3.org/1999/xlink" viewBox="0 0 123.8 123.8"><defs><style>.cls-1{fill:url(#linear-gradient);}.cls-2{fill:none;stroke:#fff;stroke-linecap:square;stroke-miterlimit:10;stroke-width:2.63px;}</style><linearGradient id="linear-gradient" x1="123.8" y1="123.8" x2="0.8" y2="0.8" gradientUnits="userSpaceOnUse"><stop offset="0.17" stop-color="#9ff66a"/><stop offset="0.19" stop-color="#9df36e"/><stop offset="0.44" stop-color="#7dc9a6"/><stop offset="0.66" stop-color="#66aacf"/><stop offset="0.83" stop-color="#5897e9"/><stop offset="0.94" stop-color="#5390f2"/></linearGradient></defs><title>Artboard 9</title><g id="Icons"><rect class="cls-1" width="123.8" height="123.8"/><g id="_6" data-name="6"><path class="cls-2" d="M67.66,53.25v-16l1.44-3.53H54.72l1.43,3.53v16a22.84,22.84,0,1,0,11.51,0Z"/><path class="cls-2" d="M44.63,70.54c2.16,0,2.16,2.15,4.31,2.15s2.16-2.15,4.32-2.15,2.16,2.15,4.32,2.15,2.16-2.15,4.31-2.15,2.16,2.15,4.32,2.15,2.16-2.15,4.32-2.15,2.16,2.15,4.32,2.15,2.16-2.15,4.33-2.15"/><polyline class="cls-2" points="66.66 29.34 67.27 25.64 56.55 25.64 57.16 29.34"/><path class="cls-2" d="M56.64,91A16.14,16.14,0,0,1,46.39,80.13"/></g></g></svg>