<svg xmlns="http://www.w3.org/2000/svg" xmlns:xlink="http://www.w3.org/1999/xlink" viewBox="0 0 123.8 123.8"><defs><style>.cls-1{fill:url(#linear-gradient);}.cls-2{fill:none;stroke:#fff;stroke-linecap:square;stroke-miterlimit:10;stroke-width:2.63px;}</style><linearGradient id="linear-gradient" x1="123.8" y1="123.8" x2="0.8" y2="0.8" gradientUnits="userSpaceOnUse"><stop offset="0.17" stop-color="#9ff66a"/><stop offset="0.19" stop-color="#9df36e"/><stop offset="0.44" stop-color="#7dc9a6"/><stop offset="0.66" stop-color="#66aacf"/><stop offset="0.83" stop-color="#5897e9"/><stop offset="0.94" stop-color="#5390f2"/></linearGradient></defs><title>Artboard 10</title><g id="Icons"><rect class="cls-1" width="123.8" height="123.8"/><g id="_7" data-name="7"><rect class="cls-2" x="29.34" y="51.24" width="43.23" height="43.23" rx="3.2"/><path class="cls-2" d="M51.24,45.9V32.54a3.2,3.2,0,0,1,3.2-3.2H91.27a3.2,3.2,0,0,1,3.2,3.2V69.36a3.2,3.2,0,0,1-3.2,3.2H77.85"/><path class="cls-2" d="M43.62,62.54a3,3,0,1,1-3-3A3,3,0,0,1,43.62,62.54Z"/><path class="cls-2" d="M64.54,62.54a3,3,0,1,1-3-3A3,3,0,0,1,64.54,62.54Z"/><path class="cls-2" d="M43.62,83.38a3,3,0,1,1-3-3A3,3,0,0,1,43.62,83.38Z"/><path class="cls-2" d="M64.54,83.38a3,3,0,1,1-3-3A3,3,0,0,1,64.54,83.38Z"/><path class="cls-2" d="M65.38,40.53a3,3,0,1,1-3-3A3,3,0,0,1,65.38,40.53Z"/><path class="cls-2" d="M86.29,40.53a3,3,0,1,1-3-3A3,3,0,0,1,86.29,40.53Z"/><path class="cls-2" d="M86.29,61.37a3,3,0,1,1-3-3A3,3,0,0,1,86.29,61.37Z"/><path class="cls-2" d="M53.94,72.86a3,3,0,1,1-3-3A3,3,0,0,1,53.94,72.86Z"/></g></g></svg>