<?xml version="1.0" encoding="utf-8"?>
<!-- Generator: Adobe Illustrator 23.0.2, SVG Export Plug-In . SVG Version: 6.00 Build 0)  -->
<svg version="1.1" id="Layer_1" xmlns="http://www.w3.org/2000/svg" xmlns:xlink="http://www.w3.org/1999/xlink" x="0px" y="0px"
	 viewBox="0 0 1018.1 587.6" style="enable-background:new 0 0 1018.1 587.6;" xml:space="preserve">
<style type="text/css">
	.st0{fill:url(#SVGID_1_);}
	.st1{fill:none;stroke:#FDE772;stroke-width:2;stroke-miterlimit:10;stroke-dasharray:6,5;}
	.st2{fill:none;stroke:#FDE772;stroke-width:2;stroke-miterlimit:10;}
	.st3{fill:#249680;}
	.st4{fill:url(#SVGID_2_);}
	.st5{fill:url(#SVGID_3_);}
	.st6{fill:url(#SVGID_4_);}
	.st7{fill:url(#SVGID_5_);}
	.st8{fill:url(#SVGID_6_);}
	.st9{fill:#E3E4E6;}
	.st10{opacity:0.1;fill:#6C63FF;enable-background:new    ;}
	.st11{fill:#FFFFFF;}
	.st12{fill:url(#SVGID_7_);}
	.st13{fill:url(#SVGID_8_);}
	.st14{fill:url(#SVGID_9_);}
	.st15{fill:url(#SVGID_10_);}
	.st16{fill:url(#SVGID_11_);}
	.st17{fill:url(#SVGID_12_);}
	.st18{fill:#E2C054;}
	.st19{fill:#D1944B;}
	.st20{fill:none;stroke:url(#SVGID_13_);stroke-width:0.5;stroke-miterlimit:10;}
	.st21{fill:none;stroke:url(#SVGID_14_);stroke-width:0.5;stroke-miterlimit:10;}
	.st22{fill:none;stroke:url(#SVGID_15_);stroke-width:0.5;stroke-miterlimit:10;}
	.st23{fill:none;stroke:url(#SVGID_16_);stroke-width:0.5;stroke-miterlimit:10;}
	.st24{fill:none;stroke:url(#SVGID_17_);stroke-width:0.5;stroke-miterlimit:10;}
	.st25{fill:none;stroke:url(#SVGID_18_);stroke-width:0.5;stroke-miterlimit:10;}
	.st26{fill:none;stroke:url(#SVGID_19_);stroke-width:0.5;stroke-miterlimit:10;}
	.st27{fill:none;stroke:url(#SVGID_20_);stroke-width:0.5;stroke-miterlimit:10;}
	.st28{fill:none;stroke:url(#SVGID_21_);stroke-width:0.5;stroke-miterlimit:10;}
	.st29{fill:none;stroke:url(#SVGID_22_);stroke-width:0.5;stroke-miterlimit:10;}
	.st30{fill:none;stroke:url(#SVGID_23_);stroke-width:0.5;stroke-miterlimit:10;}
	.st31{fill:none;stroke:url(#SVGID_24_);stroke-width:0.5;stroke-miterlimit:10;}
	.st32{fill:none;stroke:url(#SVGID_25_);stroke-width:0.5;stroke-miterlimit:10;}
	.st33{fill:none;stroke:url(#SVGID_26_);stroke-width:0.5;stroke-miterlimit:10;}
	.st34{fill:none;stroke:url(#SVGID_27_);stroke-width:0.5;stroke-miterlimit:10;}
	.st35{fill:none;stroke:url(#SVGID_28_);stroke-width:0.5;stroke-miterlimit:10;}
	.st36{fill:none;stroke:url(#SVGID_29_);stroke-width:0.5;stroke-miterlimit:10;}
	.st37{fill:none;stroke:url(#SVGID_30_);stroke-width:0.5;stroke-miterlimit:10;}
	.st38{fill:none;stroke:url(#SVGID_31_);stroke-width:0.5;stroke-miterlimit:10;}
	.st39{fill:none;stroke:url(#SVGID_32_);stroke-width:0.5;stroke-miterlimit:10;}
	.st40{fill:none;stroke:url(#SVGID_33_);stroke-width:0.5;stroke-miterlimit:10;}
	.st41{fill:none;stroke:url(#SVGID_34_);stroke-width:0.5;stroke-miterlimit:10;}
	.st42{fill:none;stroke:url(#SVGID_35_);stroke-width:0.5;stroke-miterlimit:10;}
	.st43{fill:none;stroke:url(#SVGID_36_);stroke-width:0.5;stroke-miterlimit:10;}
	.st44{fill:none;stroke:url(#SVGID_37_);stroke-width:0.5;stroke-miterlimit:10;}
	.st45{fill:none;stroke:url(#SVGID_38_);stroke-width:0.5;stroke-miterlimit:10;}
	.st46{fill:none;stroke:url(#SVGID_39_);stroke-width:0.5;stroke-miterlimit:10;}
	.st47{fill:none;stroke:url(#SVGID_40_);stroke-width:0.5;stroke-miterlimit:10;}
	.st48{fill:none;stroke:url(#SVGID_41_);stroke-width:0.5;stroke-miterlimit:10;}
	.st49{fill:none;stroke:url(#SVGID_42_);stroke-width:0.5;stroke-miterlimit:10;}
	.st50{fill:none;stroke:url(#SVGID_43_);stroke-width:0.5;stroke-miterlimit:10;}
	.st51{fill:none;stroke:#FC8175;stroke-width:2;stroke-miterlimit:10;}
	.st52{fill:none;stroke:#FC8175;stroke-width:2;stroke-miterlimit:10;stroke-dasharray:6,5;}
	.st53{fill:none;stroke:#75E2DC;stroke-width:2;stroke-miterlimit:10;}
	.st54{fill:none;stroke:#75E2DC;stroke-width:2;stroke-miterlimit:10;stroke-dasharray:6,5;}
	.st55{fill:url(#SVGID_44_);}
	.st56{fill:url(#SVGID_45_);}
	.st57{fill:url(#SVGID_46_);}
	.st58{fill:url(#SVGID_47_);}
	.st59{fill:#636363;}
	.st60{opacity:0.29;fill:#FFFFFF;}
	.st61{fill:#47373F;}
	.st62{fill:#5E4A53;}
	.st63{fill:#3A9B71;}
	.st64{fill:#D6E6EA;}
	.st65{fill:#87A2DD;}
	.st66{opacity:0.11;fill:#131816;}
	.st67{fill:#131816;}
	.st68{fill:#333333;}
	.st69{fill:#EFEFEF;}
	.st70{fill:url(#SVGID_48_);}
	.st71{opacity:0.21;fill:#FFFFFF;}
	.st72{fill:#E0E0E0;}
	.st73{fill:#B73E70;}
	.st74{fill:#9E3866;}
	.st75{fill:#31353A;}
	.st76{fill:#49505B;}
	.st77{fill:#496BAD;}
	.st78{fill:#41454C;}
	.st79{fill:#7B8D91;}
	.st80{fill:#EFAA9E;}
	.st81{fill:#D84178;}
	.st82{fill:#AF3567;}
	.st83{fill:#FCC0AA;}
	.st84{fill:#FFF0A6;}
	.st85{fill:#E8956B;}
	.st86{fill:#CC6B46;}
	.st87{fill:#335489;}
	.st88{fill:#E1E4E5;}
	.st89{fill:#FFD180;}
	.st90{fill:#FFEC7D;}
	.st91{fill:#89DB8F;}
	.st92{fill:#FFCB80;}
	.st93{fill:#474747;}
	.st94{fill:#383838;}
	.st95{fill:#D8D8D8;}
	.st96{fill:#478965;}
	.st97{fill:url(#SVGID_49_);}
	.st98{opacity:0.29;fill:#282828;}
	.st99{fill:#56A57C;}
	.st100{opacity:0.29;fill:none;stroke:#282828;stroke-width:1.5;stroke-miterlimit:10;}
	.st101{fill:#3D3D3D;}
	.st102{fill:#606060;}
	.st103{fill:#FFBF80;}
	.st104{fill:#677375;}
	.st105{opacity:0.14;fill:#FFFFFF;}
	.st106{fill:#9BB0B8;}
	.st107{fill:none;stroke:#92A7AD;stroke-miterlimit:10;}
	.st108{fill:#D0DEE2;}
	.st109{fill:url(#SVGID_50_);}
	.st110{fill:url(#SVGID_51_);}
	.st111{fill:url(#SVGID_52_);}
	.st112{fill:url(#SVGID_53_);}
	.st113{fill:url(#SVGID_54_);}
	.st114{fill:#657375;}
	.st115{fill:#9DB1B8;}
	.st116{fill:#5D696D;}
	.st117{opacity:0.46;fill:#FFFFFF;}
	.st118{fill:#8CA3AA;}
	.st119{fill:url(#SVGID_55_);}
	.st120{opacity:0.18;fill:#505151;}
	.st121{fill:url(#SVGID_56_);}
	.st122{fill:#F9F9F9;}
	.st123{fill:#E9E9E9;}
	.st124{fill:#F7F7F7;}
	.st125{fill:url(#SVGID_57_);}
	.st126{opacity:0.1;fill:#2D437D;}
	.st127{opacity:0.38;fill:#FFFFFF;}
	.st128{fill:none;stroke:#D84178;stroke-width:5;stroke-miterlimit:10;}
	.st129{fill:none;stroke:#D84178;stroke-width:3;stroke-miterlimit:10;}
</style>
<g>
	<linearGradient id="SVGID_1_" gradientUnits="userSpaceOnUse" x1="795.4915" y1="629.425" x2="826.8418" y2="526.5314">
		<stop  offset="0" style="stop-color:#22AFBD"/>
		<stop  offset="1" style="stop-color:#FFC359"/>
	</linearGradient>
	<path class="st0" d="M905.9,579.6l-190-1.4c4.4-12.8,14.9-28,21.2-35.9l7.9,11.8l-2.8-17.1c10.1-8.6,20.9-13.1,30.8-15.3l4,14.5
		l-0.6-15.2c5.1-0.9,9.8-1.1,13.9-1l0.8,15.7l7-15.1c0.3,0.1,0.6,0.1,1,0.2c8.4,1.4,17.7,5.1,25.4,11.9l-2.4,13.2l7.8-7.6
		c5.3,6.5,9.4,15,10.9,25.9c0,0,3-7.4,9.8-12.8l3.5,8.4l-1-10.1c3.1-1.9,6.9-3.4,11.4-3.7l1.5,10.9l2.4-10.9
		c2.2,0.1,4.5,0.6,6.9,1.3c2.6,0.8,5,1.7,7.2,2.8l-1,8.3l2.4-7.6c3.8,2.1,7,4.6,9.6,7.3l-4.9,12.4l7.4-9.5
		C903.7,570,905.9,579.6,905.9,579.6z"/>
	<path class="st1" d="M634.1,379.2c122.2,86.4,329.5-114.7,210.5-186.8c-94.9-57.5-14.9-139.3,20.7-154.8"/>
	<ellipse transform="matrix(0.956 -0.2933 0.2933 0.956 30.787 259.1203)" class="st2" cx="879.4" cy="26.9" rx="18" ry="18"/>
	<g>
		<g>
			<path class="st3" d="M883.4,559.3l-1.5,0c0-0.2,0-19.3,10.8-51.3c10-29.6,31-71.8,74.7-104.9l0.9,1.2
				c-43.4,32.9-64.3,74.8-74.2,104.1C883.5,540.2,883.5,559.1,883.4,559.3z"/>
		</g>
		
			<linearGradient id="SVGID_2_" gradientUnits="userSpaceOnUse" x1="-2312.8362" y1="-766.355" x2="-2284.4893" y2="-864.1027" gradientTransform="matrix(0.9781 -0.2081 0.2081 0.9781 3401.2422 734.955)">
			<stop  offset="0" style="stop-color:#22DEBD"/>
			<stop  offset="1" style="stop-color:#FFC359"/>
		</linearGradient>
		<path class="st4" d="M962.9,397.4c1.5,13.2,24.1,26.4,45.2-22.6C1008.1,374.8,961.3,382.8,962.9,397.4z"/>
		<g>
			<path class="st3" d="M974,435.6c-18.5-1.9-44.1,5.9-44.4,6l-0.4-1.5c0.3-0.1,26.2-8,45-6L974,435.6z"/>
		</g>
		<g>
			<path class="st3" d="M941.6,428.6l-1.5-0.1c0-0.2,1.9-20.5-2.4-33.9l1.4-0.5C943.5,407.8,941.7,427.7,941.6,428.6z"/>
		</g>
		<g>
			<path class="st3" d="M919.6,456.2l-1.5-0.1c0-0.2,1.9-20.5-2.4-33.9l1.4-0.5C921.5,435.5,919.6,455.4,919.6,456.2z"/>
		</g>
		<g>
			<path class="st3" d="M910.5,471.7l-0.8-1.3c0.7-0.5,17.4-11.5,31.6-14.2l0.3,1.5C927.6,460.3,910.7,471.6,910.5,471.7z"/>
		</g>
		
			<linearGradient id="SVGID_3_" gradientUnits="userSpaceOnUse" x1="-2314.4788" y1="-778.3259" x2="-2286.6208" y2="-806.9169" gradientTransform="matrix(0.9781 -0.2081 0.2081 0.9781 3401.2422 734.955)">
			<stop  offset="0" style="stop-color:#22DEBD"/>
			<stop  offset="1" style="stop-color:#FFC359"/>
		</linearGradient>
		<path class="st5" d="M971,430.7c-4.7,8.5,3.3,26,36.6,5.6C1007.5,436.3,976.2,421.3,971,430.7z"/>
		
			<linearGradient id="SVGID_4_" gradientUnits="userSpaceOnUse" x1="-2342.3281" y1="-818.5738" x2="-2337.1963" y2="-874.2908" gradientTransform="matrix(0.9781 -0.2081 0.2081 0.9781 3401.2422 734.955)">
			<stop  offset="0" style="stop-color:#22DEBD"/>
			<stop  offset="0.6564" style="stop-color:#B3CC7B"/>
			<stop  offset="1" style="stop-color:#FFC359"/>
		</linearGradient>
		<path class="st6" d="M942,395.9c-5.6,4.8-19.9,1.6-9.8-26.4C932.2,369.5,948.2,390.6,942,395.9z"/>
		
			<linearGradient id="SVGID_5_" gradientUnits="userSpaceOnUse" x1="-2384.335" y1="-767.5812" x2="-2355.9875" y2="-865.3305" gradientTransform="matrix(0.9781 -0.2081 0.2081 0.9781 3401.2422 734.955)">
			<stop  offset="0" style="stop-color:#22DEBD"/>
			<stop  offset="1" style="stop-color:#FFC359"/>
		</linearGradient>
		<path class="st7" d="M920,423.6c-5.6,4.8-19.9,1.6-9.8-26.4C910.2,397.2,926.2,418.2,920,423.6z"/>
		
			<linearGradient id="SVGID_6_" gradientUnits="userSpaceOnUse" x1="-2359.4675" y1="-765.2267" x2="-2326.4775" y2="-795.2842" gradientTransform="matrix(0.9781 -0.2081 0.2081 0.9781 3401.2422 734.955)">
			<stop  offset="0" style="stop-color:#22DEBD"/>
			<stop  offset="1" style="stop-color:#FFC359"/>
		</linearGradient>
		<path class="st8" d="M938.3,454.6c-1.6,7.2,8,18.2,27.9-3.9C966.2,450.7,940,446.6,938.3,454.6z"/>
	</g>
	<path class="st9" d="M915.1,587.6H91.7c-5.9,0-10.6-4.8-10.6-10.6l0,0c0-5.9,4.8-10.6,10.6-10.6h823.4c5.9,0,10.6,4.8,10.6,10.6
		l0,0C925.7,582.8,920.9,587.6,915.1,587.6z"/>
	<g>
		<polygon class="st10" points="514.9,232.2 514.9,250.5 503.4,250.5 503.4,571.6 370.9,571.6 370.9,450.8 216,450.8 216,570.7 
			80,570.7 80,250.5 72,250.5 72,231.9 194.8,231.9 194.8,160.2 178.7,160.2 178.7,134.5 247.8,134.5 247.8,47.1 336.5,47.1 
			336.5,134.5 405.5,134.5 405.5,160.2 389.4,160.2 389.4,232.2 		"/>
		<g>
			<rect x="448.1" y="263.7" class="st11" width="37.3" height="37.3"/>
			<rect x="393.4" y="263.7" class="st11" width="37.3" height="37.3"/>
		</g>
		<g>
			<rect x="448.1" y="314.5" class="st11" width="37.3" height="37.3"/>
			<rect x="393.4" y="314.5" class="st11" width="37.3" height="37.3"/>
		</g>
		<g>
			<rect x="448.1" y="364.6" class="st11" width="37.3" height="37.3"/>
			<rect x="393.4" y="364.6" class="st11" width="37.3" height="37.3"/>
		</g>
		<g>
			<rect x="143" y="263.7" class="st11" width="37.3" height="37.3"/>
			<rect x="88.4" y="263.7" class="st11" width="37.3" height="37.3"/>
		</g>
		<g>
			<rect x="143" y="314.5" class="st11" width="37.3" height="37.3"/>
			<rect x="88.4" y="314.5" class="st11" width="37.3" height="37.3"/>
		</g>
		<g>
			<rect x="143" y="364.6" class="st11" width="37.3" height="37.3"/>
			<rect x="88.4" y="364.6" class="st11" width="37.3" height="37.3"/>
		</g>
		<g>
			
				<rect x="285.1" y="65.4" transform="matrix(-1.836970e-16 1 -1 -1.836970e-16 383.0386 -201.1725)" class="st11" width="14.1" height="51.1"/>
		</g>
		<g>
			
				<rect x="285.1" y="65.4" transform="matrix(-1 -1.224647e-16 1.224647e-16 -1 584.2109 181.8661)" class="st11" width="14.1" height="51.1"/>
		</g>
		<g>
			<rect x="219.1" y="182.1" class="st11" width="37.3" height="37.3"/>
			<rect x="327.8" y="182.1" class="st11" width="37.3" height="37.3"/>
			<rect x="273.1" y="182.1" class="st11" width="37.3" height="37.3"/>
		</g>
		<g>
			<rect x="219.1" y="236.1" class="st11" width="37.3" height="37.3"/>
			<rect x="327.8" y="236.1" class="st11" width="37.3" height="37.3"/>
			<rect x="273.1" y="236.1" class="st11" width="37.3" height="37.3"/>
		</g>
		<g>
			<rect x="219.1" y="287.2" class="st11" width="37.3" height="37.3"/>
			<rect x="327.8" y="287.2" class="st11" width="37.3" height="37.3"/>
			<rect x="273.1" y="287.2" class="st11" width="37.3" height="37.3"/>
		</g>
		<g>
			<rect x="219.1" y="339.2" class="st11" width="37.3" height="37.3"/>
			<rect x="327.8" y="339.2" class="st11" width="37.3" height="37.3"/>
			<rect x="273.1" y="339.2" class="st11" width="37.3" height="37.3"/>
		</g>
	</g>
	<g>
		<g>
			
				<linearGradient id="SVGID_7_" gradientUnits="userSpaceOnUse" x1="-2851.6587" y1="512.6267" x2="-2801.144" y2="359.3407" gradientTransform="matrix(1 0 0 1 2993.5876 0)">
				<stop  offset="0" style="stop-color:#22DEBD"/>
				<stop  offset="1" style="stop-color:#FFC359"/>
			</linearGradient>
			<path class="st12" d="M188,432.4c2.5,8.9,3.8,18.6-6.4,28.1c-19.1,17.9-2.7,49.6-20.5,59.3c-4.7,2.5-8.3,2.7-11.1,1.4h0
				c-7.8-3.7-9.3-18.7-11.1-24.4c0,0-4.9-13.5-2.3-29.2c1-6.4,3.3-13.2,7.6-19.6c14.9-22.2,20.5-29.3,14.1-47.9
				c-1-3-1.3-6.3-1.1-9.8l9.1,0.3l-8.5-4.9c3.6-17.3,19.8-35,34.8-22.2c19.5,16.6-1.7,35.4-7.5,47.9c-2.5,5.4,0,11.8,2.2,18.9
				l-3.1-0.8L188,432.4L188,432.4z"/>
			<g>
				
					<linearGradient id="SVGID_8_" gradientUnits="userSpaceOnUse" x1="-2853.5042" y1="459.9161" x2="-2807.1399" y2="459.9161" gradientTransform="matrix(1 0 0 1 2993.5876 0)">
					<stop  offset="0" style="stop-color:#FFFFFF"/>
					<stop  offset="1" style="stop-color:#DCEFFE"/>
				</linearGradient>
				<path class="st13" d="M145.3,540.8c-0.5,0.2-1-0.1-1.2-0.6c-3.6-10.8-4.8-22-3.5-32.7c1.2-9.7,4.4-18.5,9-24.8
					c8.3-11.4,22.2-30.4,20.3-49.8c-0.1-1.1-0.2-2.1-0.3-3.1c-1.7-17.4-2.6-26.3,15.2-50.3c0.3-0.4,0.9-0.5,1.3-0.2l0,0
					c0.4,0.3,0.5,0.9,0.2,1.3c-17.3,23.5-16.5,31.6-14.8,49c0.1,1,0.2,2,0.3,3.1c1.9,20.1-12.2,39.5-20.7,51.1
					c-8.2,11.2-12.9,32.8-5.2,55.8C146,540.1,145.7,540.6,145.3,540.8L145.3,540.8z"/>
			</g>
			<g>
				
					<linearGradient id="SVGID_9_" gradientUnits="userSpaceOnUse" x1="-2859.1289" y1="498.9629" x2="-2916.1758" y2="359.1764" gradientTransform="matrix(1 0 0 1 2993.5876 0)">
					<stop  offset="0" style="stop-color:#22BBBD"/>
					<stop  offset="0.9266" style="stop-color:#EFC560"/>
					<stop  offset="1" style="stop-color:#FFC359"/>
				</linearGradient>
				<path class="st14" d="M164.3,510.8c-1.2,6.9-7.3,10-14.2,10.4h0c-2.1,0.1-4.3,0-6.5-0.4c-6.3-1.1-12.2-4.1-15.1-8.4
					c-2.8-4.1-3.9-10.3-5.3-16.6c-2.2-9.8-5.1-19.7-15.9-22.2c-16.4-3.8-26.3-17.4-29.2-37.6l9.4-1.8l-9.7-0.4
					c-0.1-0.8-0.2-1.6-0.2-2.5c-2-22.8-23.6-32.2-14.1-48.3c7.8-13.2,30.4-6.4,38.1,9.4l-5.2,4.2l6.2-1.8c1,2.7,1.6,5.7,1.6,8.9
					c0,23.2,11.6,37.2,20.2,53.9c2.4,4.5,6.9,7.4,12.2,10.1C150.6,474.6,169.5,480.1,164.3,510.8z"/>
				<g>
					
						<linearGradient id="SVGID_10_" gradientUnits="userSpaceOnUse" x1="-2916.6101" y1="464.5859" x2="-2844.4724" y2="464.5859" gradientTransform="matrix(1 0 0 1 2993.5876 0)">
						<stop  offset="0" style="stop-color:#FFFFFF"/>
						<stop  offset="1" style="stop-color:#DCEFFE"/>
					</linearGradient>
					<path class="st15" d="M146.4,538L146.4,538c-0.5-0.1-0.8-0.6-0.7-1.1c7.6-39.7-13-59.3-29.6-75.1c-5.6-5.3-10.8-10.3-14.4-15.5
						c-6.2-8.9-7.7-18.1-9-26.2c-1.8-10.9-3.3-20.3-15.2-27.1c-0.4-0.2-0.6-0.8-0.4-1.2l0,0c0.2-0.5,0.8-0.6,1.3-0.4
						c12.7,7.2,14.4,17.5,16.1,28.4c1.3,8.3,2.7,16.8,8.7,25.4c3.5,5.1,8.7,10,14.2,15.3c16.9,16.1,37.9,36.2,30.1,76.9
						C147.4,537.7,146.9,538.1,146.4,538z"/>
				</g>
			</g>
			<g>
				
					<linearGradient id="SVGID_11_" gradientUnits="userSpaceOnUse" x1="-2843.2754" y1="538.3959" x2="-2965.2065" y2="433.0127" gradientTransform="matrix(1 0 0 1 2993.5876 0)">
					<stop  offset="0" style="stop-color:#22DEBD"/>
					<stop  offset="0.3897" style="stop-color:#78D396"/>
					<stop  offset="1" style="stop-color:#FFC359"/>
				</linearGradient>
				<path class="st16" d="M143.6,520.7c-1.1,9.3-17.9,12.2-24.7,6.8c-7.4-5.8-10.4-23.5-23.7-22.3c-10.2,0.9-18.7-3.9-25.2-13.1
					l4.8-4.2l-5.6,3c-1.6-2.5-3.1-5.4-4.5-8.5c-4.8-11.2-15.2-15.2-19.4-21.6l8.3-0.9l-10-3.1c-0.3-1.5-0.3-3.1,0.2-5
					c3-13.4,27.9-11.1,33.2,5.2c4.8,14.7,14.5,22,23.6,30.4l-1.3,2.9l2.3-2c0.6,0.6,1.2,1.2,1.8,1.8c4.5,4.4,12.1,4.2,19.6,5.6
					c9.1,1.7,17.8,5.6,20.4,22.7C143.7,519.2,143.7,520,143.6,520.7z"/>
				<g>
					
						<linearGradient id="SVGID_12_" gradientUnits="userSpaceOnUse" x1="-2938.1531" y1="497.7803" x2="-2855.5527" y2="497.7803" gradientTransform="matrix(1 0 0 1 2993.5876 0)">
						<stop  offset="0" style="stop-color:#FFFFFF"/>
						<stop  offset="1" style="stop-color:#DCEFFE"/>
					</linearGradient>
					<path class="st17" d="M137.2,541.5c-0.5,0.1-1-0.3-1-0.8c-3.8-29.2-22.5-38.2-37.6-45.4c-5.1-2.5-9.9-4.8-13.7-7.6
						c-6.4-4.9-9.6-11-12.3-16.4c-3.6-7.1-6.8-13.3-16.4-15.3c-0.5-0.1-0.8-0.6-0.7-1.1v0c0.1-0.5,0.6-0.9,1.1-0.8
						c10.5,2.2,14,9,17.7,16.3c2.8,5.5,5.7,11.1,11.8,15.7c3.6,2.7,8.3,5,13.4,7.4c15.5,7.5,34.7,16.7,38.7,46.9
						C138.1,540.9,137.7,541.4,137.2,541.5L137.2,541.5z"/>
				</g>
			</g>
			<path class="st18" d="M147.8,578.2h-5.4c-12.9,0-23.4-10.5-23.4-23.4v-18.2c0-2.4,2-4.4,4.4-4.4h43.6c2.4,0,4.4,2,4.4,4.4v18.2
				C171.3,567.7,160.8,578.2,147.8,578.2z"/>
			<path class="st19" d="M171.3,547.9v4.1c0,14.5-11.7,26.2-26.2,26.2c-14.5,0-26.2-11.7-26.2-26.2v-15c0-0.3,0-0.6,0.1-0.9v9.6
				c0,14.5,11.7,26.2,26.2,26.2C158.9,571.9,170.2,561.3,171.3,547.9z"/>
		</g>
		<g>
			
				<linearGradient id="SVGID_13_" gradientUnits="userSpaceOnUse" x1="-6846.7119" y1="392.2036" x2="-6836.1479" y2="392.2036" gradientTransform="matrix(-1 0 0 1 -6658.9014 0)">
				<stop  offset="0" style="stop-color:#FFFFFF"/>
				<stop  offset="1" style="stop-color:#DCEFFE"/>
			</linearGradient>
			<line class="st20" x1="187.8" y1="391.7" x2="177.3" y2="392.8"/>
			
				<linearGradient id="SVGID_14_" gradientUnits="userSpaceOnUse" x1="-6832.2646" y1="395.3156" x2="-6828.8809" y2="395.3156" gradientTransform="matrix(-1 0 0 1 -6658.9014 0)">
				<stop  offset="0" style="stop-color:#FFFFFF"/>
				<stop  offset="1" style="stop-color:#DCEFFE"/>
			</linearGradient>
			<line class="st21" x1="173.1" y1="400.2" x2="170.2" y2="390.4"/>
			
				<linearGradient id="SVGID_15_" gradientUnits="userSpaceOnUse" x1="-6837.5029" y1="410.5988" x2="-6828.7603" y2="410.5988" gradientTransform="matrix(-1 0 0 1 -6658.9014 0)">
				<stop  offset="0" style="stop-color:#FFFFFF"/>
				<stop  offset="1" style="stop-color:#DCEFFE"/>
			</linearGradient>
			<line class="st22" x1="169.9" y1="412.1" x2="178.5" y2="409.1"/>
			
				<linearGradient id="SVGID_16_" gradientUnits="userSpaceOnUse" x1="-6829.1704" y1="423.7383" x2="-6823.9531" y2="423.7383" gradientTransform="matrix(-1 0 0 1 -6658.9014 0)">
				<stop  offset="0" style="stop-color:#FFFFFF"/>
				<stop  offset="1" style="stop-color:#DCEFFE"/>
			</linearGradient>
			<line class="st23" x1="170.1" y1="426.5" x2="165.2" y2="421"/>
			
				<linearGradient id="SVGID_17_" gradientUnits="userSpaceOnUse" x1="-6837.041" y1="433.5583" x2="-6829.6372" y2="433.5583" gradientTransform="matrix(-1 0 0 1 -6658.9014 0)">
				<stop  offset="0" style="stop-color:#FFFFFF"/>
				<stop  offset="1" style="stop-color:#DCEFFE"/>
			</linearGradient>
			<line class="st24" x1="178" y1="430.1" x2="170.9" y2="437"/>
			
				<linearGradient id="SVGID_18_" gradientUnits="userSpaceOnUse" x1="-6828.2158" y1="445.1764" x2="-6822.5562" y2="445.1764" gradientTransform="matrix(-1 0 0 1 -6658.9014 0)">
				<stop  offset="0" style="stop-color:#FFFFFF"/>
				<stop  offset="1" style="stop-color:#DCEFFE"/>
			</linearGradient>
			<line class="st25" x1="169.1" y1="448.8" x2="163.9" y2="441.6"/>
			
				<linearGradient id="SVGID_19_" gradientUnits="userSpaceOnUse" x1="-6833.7749" y1="456.3795" x2="-6825.019" y2="456.3795" gradientTransform="matrix(-1 0 0 1 -6658.9014 0)">
				<stop  offset="0" style="stop-color:#FFFFFF"/>
				<stop  offset="1" style="stop-color:#DCEFFE"/>
			</linearGradient>
			<line class="st26" x1="166.2" y1="458" x2="174.8" y2="454.7"/>
			
				<linearGradient id="SVGID_20_" gradientUnits="userSpaceOnUse" x1="-6819.2461" y1="463.71" x2="-6814.0991" y2="463.71" gradientTransform="matrix(-1 0 0 1 -6658.9014 0)">
				<stop  offset="0" style="stop-color:#FFFFFF"/>
				<stop  offset="1" style="stop-color:#DCEFFE"/>
			</linearGradient>
			<line class="st27" x1="160.1" y1="468.3" x2="155.4" y2="459.1"/>
			
				<linearGradient id="SVGID_21_" gradientUnits="userSpaceOnUse" x1="-6748.458" y1="398.3814" x2="-6747.0381" y2="398.3814" gradientTransform="matrix(-1 0 0 1 -6658.9014 0)">
				<stop  offset="0" style="stop-color:#FFFFFF"/>
				<stop  offset="1" style="stop-color:#DCEFFE"/>
			</linearGradient>
			<line class="st28" x1="88.4" y1="393.6" x2="89.3" y2="403.2"/>
			
				<linearGradient id="SVGID_22_" gradientUnits="userSpaceOnUse" x1="-6752.0474" y1="413.3189" x2="-6742.8955" y2="413.3189" gradientTransform="matrix(-1 0 0 1 -6658.9014 0)">
				<stop  offset="0" style="stop-color:#FFFFFF"/>
				<stop  offset="1" style="stop-color:#DCEFFE"/>
			</linearGradient>
			<line class="st29" x1="93" y1="416.6" x2="84.1" y2="410"/>
			
				<linearGradient id="SVGID_23_" gradientUnits="userSpaceOnUse" x1="-6757.6704" y1="420.6033" x2="-6753.6855" y2="420.6033" gradientTransform="matrix(-1 0 0 1 -6658.9014 0)">
				<stop  offset="0" style="stop-color:#FFFFFF"/>
				<stop  offset="1" style="stop-color:#DCEFFE"/>
			</linearGradient>
			<line class="st30" x1="95" y1="426.8" x2="98.5" y2="414.4"/>
			
				<linearGradient id="SVGID_24_" gradientUnits="userSpaceOnUse" x1="-6757.5088" y1="438.8603" x2="-6749.0522" y2="438.8603" gradientTransform="matrix(-1 0 0 1 -6658.9014 0)">
				<stop  offset="0" style="stop-color:#FFFFFF"/>
				<stop  offset="1" style="stop-color:#DCEFFE"/>
			</linearGradient>
			<line class="st31" x1="98.5" y1="440.2" x2="90.2" y2="437.5"/>
			
				<linearGradient id="SVGID_25_" gradientUnits="userSpaceOnUse" x1="-6763.9443" y1="441.2986" x2="-6761.8335" y2="441.2986" gradientTransform="matrix(-1 0 0 1 -6658.9014 0)">
				<stop  offset="0" style="stop-color:#FFFFFF"/>
				<stop  offset="1" style="stop-color:#DCEFFE"/>
			</linearGradient>
			<line class="st32" x1="103.2" y1="445.1" x2="104.8" y2="437.5"/>
			
				<linearGradient id="SVGID_26_" gradientUnits="userSpaceOnUse" x1="-6768.1699" y1="452.3224" x2="-6756.832" y2="452.3224" gradientTransform="matrix(-1 0 0 1 -6658.9014 0)">
				<stop  offset="0" style="stop-color:#FFFFFF"/>
				<stop  offset="1" style="stop-color:#DCEFFE"/>
			</linearGradient>
			<line class="st33" x1="109.2" y1="453.3" x2="98" y2="451.3"/>
			
				<linearGradient id="SVGID_27_" gradientUnits="userSpaceOnUse" x1="-6773.7236" y1="454.812" x2="-6773.0396" y2="454.812" gradientTransform="matrix(-1 0 0 1 -6658.9014 0)">
				<stop  offset="0" style="stop-color:#FFFFFF"/>
				<stop  offset="1" style="stop-color:#DCEFFE"/>
			</linearGradient>
			<line class="st34" x1="114.4" y1="458.7" x2="114.6" y2="450.9"/>
			
				<linearGradient id="SVGID_28_" gradientUnits="userSpaceOnUse" x1="-6779.9395" y1="464.5859" x2="-6771.6187" y2="464.5859" gradientTransform="matrix(-1 0 0 1 -6658.9014 0)">
				<stop  offset="0" style="stop-color:#FFFFFF"/>
				<stop  offset="1" style="stop-color:#DCEFFE"/>
			</linearGradient>
			<line class="st35" x1="121" y1="464.8" x2="112.7" y2="464.4"/>
			
				<linearGradient id="SVGID_29_" gradientUnits="userSpaceOnUse" x1="-6786.0747" y1="467.3521" x2="-6784.293" y2="467.3521" gradientTransform="matrix(-1 0 0 1 -6658.9014 0)">
				<stop  offset="0" style="stop-color:#FFFFFF"/>
				<stop  offset="1" style="stop-color:#DCEFFE"/>
			</linearGradient>
			<line class="st36" x1="126.9" y1="470.7" x2="125.6" y2="464"/>
			
				<linearGradient id="SVGID_30_" gradientUnits="userSpaceOnUse" x1="-6791.5723" y1="477.4026" x2="-6782.6685" y2="477.4026" gradientTransform="matrix(-1 0 0 1 -6658.9014 0)">
				<stop  offset="0" style="stop-color:#FFFFFF"/>
				<stop  offset="1" style="stop-color:#DCEFFE"/>
			</linearGradient>
			<line class="st37" x1="132.6" y1="477.9" x2="123.8" y2="476.9"/>
			
				<linearGradient id="SVGID_31_" gradientUnits="userSpaceOnUse" x1="-6798.6187" y1="481.9207" x2="-6797.3828" y2="481.9207" gradientTransform="matrix(-1 0 0 1 -6658.9014 0)">
				<stop  offset="0" style="stop-color:#FFFFFF"/>
				<stop  offset="1" style="stop-color:#DCEFFE"/>
			</linearGradient>
			<line class="st38" x1="138.7" y1="486" x2="139.5" y2="477.9"/>
			
				<linearGradient id="SVGID_32_" gradientUnits="userSpaceOnUse" x1="-6802.3135" y1="495.0142" x2="-6792.2129" y2="495.0142" gradientTransform="matrix(-1 0 0 1 -6658.9014 0)">
				<stop  offset="0" style="stop-color:#FFFFFF"/>
				<stop  offset="1" style="stop-color:#DCEFFE"/>
			</linearGradient>
			<line class="st39" x1="143.3" y1="496.5" x2="133.4" y2="493.5"/>
			
				<linearGradient id="SVGID_33_" gradientUnits="userSpaceOnUse" x1="-6808.7471" y1="499.4401" x2="-6804.7734" y2="499.4401" gradientTransform="matrix(-1 0 0 1 -6658.9014 0)">
				<stop  offset="0" style="stop-color:#FFFFFF"/>
				<stop  offset="1" style="stop-color:#DCEFFE"/>
			</linearGradient>
			<line class="st40" x1="146.1" y1="504.2" x2="149.6" y2="494.6"/>
			
				<linearGradient id="SVGID_34_" gradientUnits="userSpaceOnUse" x1="-6723.0024" y1="454.4431" x2="-6720.5811" y2="454.4431" gradientTransform="matrix(-1 0 0 1 -6658.9014 0)">
				<stop  offset="0" style="stop-color:#FFFFFF"/>
				<stop  offset="1" style="stop-color:#DCEFFE"/>
			</linearGradient>
			<line class="st41" x1="63.9" y1="458.3" x2="61.9" y2="450.6"/>
			
				<linearGradient id="SVGID_35_" gradientUnits="userSpaceOnUse" x1="-6729.73" y1="465.9229" x2="-6720.9077" y2="465.9229" gradientTransform="matrix(-1 0 0 1 -6658.9014 0)">
				<stop  offset="0" style="stop-color:#FFFFFF"/>
				<stop  offset="1" style="stop-color:#DCEFFE"/>
			</linearGradient>
			<line class="st42" x1="70.8" y1="466.9" x2="62.1" y2="465"/>
			
				<linearGradient id="SVGID_36_" gradientUnits="userSpaceOnUse" x1="-6735.3193" y1="471.1787" x2="-6734.4048" y2="471.1787" gradientTransform="matrix(-1 0 0 1 -6658.9014 0)">
				<stop  offset="0" style="stop-color:#FFFFFF"/>
				<stop  offset="1" style="stop-color:#DCEFFE"/>
			</linearGradient>
			<line class="st43" x1="76.2" y1="476.2" x2="75.8" y2="466.2"/>
			
				<linearGradient id="SVGID_37_" gradientUnits="userSpaceOnUse" x1="-6741.0537" y1="483.2809" x2="-6730.7451" y2="483.2809" gradientTransform="matrix(-1 0 0 1 -6658.9014 0)">
				<stop  offset="0" style="stop-color:#FFFFFF"/>
				<stop  offset="1" style="stop-color:#DCEFFE"/>
			</linearGradient>
			<line class="st44" x1="82.1" y1="484" x2="71.9" y2="482.5"/>
			
				<linearGradient id="SVGID_38_" gradientUnits="userSpaceOnUse" x1="-6749.4185" y1="485.0789" x2="-6746.5845" y2="485.0789" gradientTransform="matrix(-1 0 0 1 -6658.9014 0)">
				<stop  offset="0" style="stop-color:#FFFFFF"/>
				<stop  offset="1" style="stop-color:#DCEFFE"/>
			</linearGradient>
			<line class="st45" x1="90.3" y1="489.4" x2="87.9" y2="480.7"/>
			
				<linearGradient id="SVGID_39_" gradientUnits="userSpaceOnUse" x1="-6759.1426" y1="494.8297" x2="-6749.585" y2="494.8297" gradientTransform="matrix(-1 0 0 1 -6658.9014 0)">
				<stop  offset="0" style="stop-color:#FFFFFF"/>
				<stop  offset="1" style="stop-color:#DCEFFE"/>
			</linearGradient>
			<line class="st46" x1="100.2" y1="494.7" x2="90.7" y2="495"/>
			
				<linearGradient id="SVGID_40_" gradientUnits="userSpaceOnUse" x1="-6767.1069" y1="496.0746" x2="-6764.3037" y2="496.0746" gradientTransform="matrix(-1 0 0 1 -6658.9014 0)">
				<stop  offset="0" style="stop-color:#FFFFFF"/>
				<stop  offset="1" style="stop-color:#DCEFFE"/>
			</linearGradient>
			<line class="st47" x1="108" y1="498.6" x2="105.6" y2="493.6"/>
			
				<linearGradient id="SVGID_41_" gradientUnits="userSpaceOnUse" x1="-6776.4463" y1="504.304" x2="-6765.3379" y2="504.304" gradientTransform="matrix(-1 0 0 1 -6658.9014 0)">
				<stop  offset="0" style="stop-color:#FFFFFF"/>
				<stop  offset="1" style="stop-color:#DCEFFE"/>
			</linearGradient>
			<line class="st48" x1="117.5" y1="504.8" x2="106.5" y2="503.8"/>
			
				<linearGradient id="SVGID_42_" gradientUnits="userSpaceOnUse" x1="-6784.5518" y1="506.9319" x2="-6781.5747" y2="506.9319" gradientTransform="matrix(-1 0 0 1 -6658.9014 0)">
				<stop  offset="0" style="stop-color:#FFFFFF"/>
				<stop  offset="1" style="stop-color:#DCEFFE"/>
			</linearGradient>
			<line class="st49" x1="125.4" y1="512.4" x2="122.9" y2="501.5"/>
			
				<linearGradient id="SVGID_43_" gradientUnits="userSpaceOnUse" x1="-6789.2129" y1="517.7201" x2="-6778.1582" y2="517.7201" gradientTransform="matrix(-1 0 0 1 -6658.9014 0)">
				<stop  offset="0" style="stop-color:#FFFFFF"/>
				<stop  offset="1" style="stop-color:#DCEFFE"/>
			</linearGradient>
			<line class="st50" x1="130.2" y1="519.2" x2="119.3" y2="516.3"/>
		</g>
	</g>
	<ellipse transform="matrix(0.7739 -0.6333 0.6333 0.7739 -54.8475 81.9368)" class="st51" cx="87.3" cy="117.8" rx="18" ry="18"/>
	<path class="st52" d="M287.1,274.3C231.5,350.1,133.9,308,147.2,241c16.8-84.5-29.6-78.7-59.7-106.7"/>
	<ellipse transform="matrix(0.2333 -0.9724 0.9724 0.2333 474.3312 649.6008)" class="st53" cx="649.1" cy="24" rx="18" ry="18"/>
	<path class="st54" d="M339.6,343.1c49.5,6.7,86.5-71.5,101.7-130C489.4,27.9,580,121.3,639.2,38"/>
	<linearGradient id="SVGID_44_" gradientUnits="userSpaceOnUse" x1="404.9758" y1="617.7199" x2="436.3262" y2="514.8264">
		<stop  offset="0" style="stop-color:#22AFBD"/>
		<stop  offset="1" style="stop-color:#FFC359"/>
	</linearGradient>
	<path class="st55" d="M515.4,567.9l-190-1.4c4.4-12.8,14.9-28,21.2-35.9l7.9,11.8l-2.8-17.1c10.1-8.6,20.9-13.1,30.8-15.3l4,14.5
		l-0.6-15.2c5.1-0.9,9.8-1.1,13.9-1l0.8,15.7l7-15.1c0.3,0.1,0.6,0.1,1,0.2c8.4,1.4,17.7,5.1,25.4,11.9l-2.4,13.2l7.8-7.6
		c5.3,6.5,9.4,15,10.9,25.9c0,0,3-7.4,9.8-12.8l3.5,8.4l-1-10.1c3.1-1.9,6.9-3.4,11.4-3.7l1.5,10.9l2.4-10.9
		c2.2,0.1,4.5,0.6,6.9,1.3c2.6,0.8,5,1.7,7.2,2.8l-1,8.3l2.4-7.6c3.8,2.1,7,4.6,9.6,7.3l-4.9,12.4l7.4-9.5
		C513.1,558.3,515.4,567.9,515.4,567.9z"/>
	<linearGradient id="SVGID_45_" gradientUnits="userSpaceOnUse" x1="121.5694" y1="627.2836" x2="253.4586" y2="545.038">
		<stop  offset="0" style="stop-color:#22DEBD"/>
		<stop  offset="1" style="stop-color:#FFC359"/>
	</linearGradient>
	<path class="st56" d="M272.6,579.1l-130.4-0.7c3-6.5,10.2-14.4,14.6-18.4l5.4,6.1l-1.9-8.7c6.9-4.4,14.4-6.7,21.1-7.8l2.8,7.4
		l-0.4-7.8c3.5-0.4,6.7-0.6,9.5-0.5l0.5,8.1l4.8-7.7c0.2,0,0.4,0.1,0.7,0.1c5.7,0.7,12.1,2.6,17.5,6.1l-1.7,6.8l5.4-3.9
		c3.7,3.3,6.4,7.7,7.5,13.3c0,0,2-3.8,6.8-6.5l2.4,4.3l-0.7-5.2c2.1-1,4.7-1.7,7.8-1.9l1,5.6l1.7-5.6c1.5,0.1,3.1,0.3,4.8,0.7
		c1.8,0.4,3.4,0.9,4.9,1.4l-0.7,4.3l1.7-3.9c2.6,1.1,4.8,2.4,6.6,3.7l-3.3,6.3l5.1-4.9C271,574.1,272.6,579.1,272.6,579.1z"/>
	<linearGradient id="SVGID_46_" gradientUnits="userSpaceOnUse" x1="690.4146" y1="631.0597" x2="822.304" y2="548.814">
		<stop  offset="0" style="stop-color:#22DEBD"/>
		<stop  offset="1" style="stop-color:#FFC359"/>
	</linearGradient>
	<path class="st57" d="M841.4,582.8L711,582.1c3-6.5,10.2-14.4,14.6-18.4l5.4,6.1l-1.9-8.7c6.9-4.4,14.4-6.7,21.1-7.8l2.8,7.4
		l-0.4-7.8c3.5-0.4,6.7-0.6,9.5-0.5l0.5,8.1l4.8-7.7c0.2,0,0.4,0.1,0.7,0.1c5.7,0.7,12.1,2.6,17.5,6.1l-1.7,6.8l5.4-3.9
		c3.7,3.3,6.4,7.7,7.5,13.3c0,0,2-3.8,6.8-6.5l2.4,4.3l-0.7-5.2c2.1-1,4.7-1.7,7.8-1.9l1,5.6l1.7-5.6c1.5,0.1,3.1,0.3,4.8,0.7
		c1.8,0.4,3.4,0.9,4.9,1.4l-0.7,4.3l1.7-3.9c2.6,1.1,4.8,2.4,6.6,3.7l-3.3,6.3l5.1-4.9C839.9,577.9,841.4,582.8,841.4,582.8z"/>
	<linearGradient id="SVGID_47_" gradientUnits="userSpaceOnUse" x1="286.1909" y1="563.7905" x2="393.8668" y2="563.7905">
		<stop  offset="0" style="stop-color:#1FB89A"/>
		<stop  offset="2.106428e-03" style="stop-color:#1FB89A"/>
		<stop  offset="0.179" style="stop-color:#3FB58D"/>
		<stop  offset="0.3619" style="stop-color:#58B382"/>
		<stop  offset="0.5538" style="stop-color:#69B27B"/>
		<stop  offset="0.759" style="stop-color:#74B176"/>
		<stop  offset="1" style="stop-color:#77B175"/>
	</linearGradient>
	<path class="st58" d="M290.3,581.9c-14.2-19.5,12.3-29.2,23.4-18.7c11.1,10.5,26.9-24.1,45.7-16.5c20.3,8.2,12.7,25.5,12.7,25.5
		s17.9-3.7,21.8,9.7H290.3z"/>
	<path class="st59" d="M717.1,359c0,0.4-0.2,0.8-0.6,1.1l-2.2,1.4c-0.3,0.2-0.7,0.2-1.1,0.1c-0.3-0.1-0.5-0.3-0.7-0.5
		c-0.1-0.2-0.2-0.5-0.2-0.7c0-0.4,0.2-0.8,0.6-1.1l2.2-1.4c0.6-0.4,1.4-0.2,1.8,0.4C717,358.5,717.1,358.8,717.1,359z"/>
	<rect x="858.3" y="226.8" class="st60" width="14.6" height="27.7"/>
	<g>
		<path class="st61" d="M237.9,40.3l46.4,8.6c2.5,0.5,4.6,2,6,4.1l10.6,17.4c2.3,3.8,1.4,8.8-2.1,11.5l-15.2,11.9l-22.2-19.5
			L237.9,40.3z"/>
		<path class="st61" d="M136.8,116.7l-3.1,47.1c-0.2,2.5,0.8,5,2.5,6.8l14.3,14.5c3.1,3.2,8.2,3.5,11.7,0.8l15.3-11.8l-13.4-26.3
			L136.8,116.7z"/>
		<path class="st61" d="M226.5,127.4c12.9-10.2,16.6-27.5,8.2-39.8c-8.8-12.8-27.6-15.2-42-5.3c-14.4,9.9-18.9,28.3-10,41.2
			c8.6,12.5,26.7,15.1,40.9,6c-23.5,15.4-53.7,11.3-68-9.4c-14.2-20.7-7.4-50.2,15.1-66.7c0.5-0.4,1-0.7,1.4-1
			c0.6-0.4,1.2-0.8,1.9-1.2c23.4-14.9,53.2-10.6,67.3,9.9C255.3,81.6,248.7,110.9,226.5,127.4z"/>
		<path class="st62" d="M419.8,343.8c-14,12.9-35.7,12.3-49.1-1.2L208.8,182.9c-2.5-2.5-5.8-3.9-9.3-4.1
			c-20.7-0.9-39.9-10.2-51.7-27.4c-21-30.4-10.7-74,22.8-98c-22.5,16.5-29.3,46-15.1,66.7c14.3,20.8,44.5,24.9,68,9.4
			c0.4-0.2,0.8-0.5,1.1-0.7c0.4-0.3,0.7-0.5,1.1-0.8c0.3-0.2,0.5-0.4,0.8-0.6c22.2-16.6,28.8-45.8,14.6-66.3
			c-14.2-20.6-43.9-24.8-67.3-9.9c34.3-22.4,78.4-16.4,99.3,14c10.5,15.2,13.2,33.8,9,51.5c-1,4.4,0,9,2.9,12.5l137.7,165.7
			C435.1,309.2,433.8,330.9,419.8,343.8z"/>
		
			<ellipse transform="matrix(4.240293e-02 -0.9991 0.9991 4.240293e-02 76.3298 468.5502)" class="st61" cx="282.6" cy="194.5" rx="26.5" ry="26.5"/>
		
			<ellipse transform="matrix(3.146924e-02 -0.9995 0.9995 3.146924e-02 73.3605 582.0049)" class="st63" cx="337" cy="253.1" rx="15.3" ry="15.3"/>
	</g>
	<g>
		<path class="st64" d="M936.1,587.4H41c-5.5,0-7.8-7.1-3.3-10.3l101-61.5c1-0.7,2.1-1,3.3-1h685.3c1.1,0,2.2,0.3,3.1,0.9L939.2,577
			C943.9,580.1,941.7,587.4,936.1,587.4z"/>
		<polygon class="st64" points="35.4,565.4 35.4,581.8 941.8,581.8 941.8,567 		"/>
		<path class="st11" d="M936.1,571H41c-5.5,0-7.8-7.1-3.3-10.3l101-71.5c1-0.7,2.1-1,3.3-1h685.3c1.1,0,2.2,0.3,3.1,0.9l108.8,71.5
			C943.9,563.7,941.7,571,936.1,571z"/>
		<path class="st65" d="M858.7,566.7H78.1c-4.8,0-6.8-6.3-2.9-9.2l88.1-64c0.8-0.6,1.8-0.9,2.9-0.9h597.6c1,0,1.9,0.3,2.7,0.8
			l94.9,64C865.5,560.1,863.6,566.7,858.7,566.7z"/>
	</g>
	<path class="st66" d="M361,533.9c0,3.2-46,5.9-102.6,5.9s-102.6-2.6-102.6-5.9c0-3.2,46-5.9,102.6-5.9S361,530.7,361,533.9z"/>
	<ellipse class="st66" cx="476.6" cy="496.7" rx="315.2" ry="21.1"/>
	<g>
		<path class="st67" d="M875.8,417.8h-12.2V256.7h12.2c6.3,0,11.4,5.1,11.4,11.4v138.3C887.2,412.7,882.1,417.8,875.8,417.8z"/>
		<rect x="855" y="256.7" class="st68" width="23.6" height="161.1"/>
		<path class="st67" d="M78.8,417.8H91V256.7H78.8c-6.3,0-11.4,5.1-11.4,11.4v138.3C67.4,412.7,72.5,417.8,78.8,417.8z"/>
		
			<rect x="76" y="256.7" transform="matrix(-1 -1.224647e-16 1.224647e-16 -1 175.585 674.5354)" class="st68" width="23.6" height="161.1"/>
		<path class="st69" d="M859.1,247.2v205.8c0,16.3-12.3,29.9-28.5,31.5l-230.3,22.7c-5,0.5-9.9-1.2-13.6-4.5l-46.6-42.6
			c-3.2-3-7.5-4.6-11.8-4.6H424.9c-4.4,0-8.6,1.6-11.8,4.6l-46.6,42.6c-3.7,3.4-8.6,5-13.6,4.5l-230.3-22.7
			c-16.2-1.6-28.5-15.2-28.5-31.5V247.2c0-9.1,6.9-16.7,16-17.5c46.7-4.1,190.8-15.5,366.5-15.5c174,0,319.4,11.4,366.5,15.5
			C852.1,230.6,859.1,238.2,859.1,247.2z"/>
		<linearGradient id="SVGID_48_" gradientUnits="userSpaceOnUse" x1="474.9342" y1="471.6111" x2="480.7197" y2="99.3978">
			<stop  offset="5.586590e-03" style="stop-color:#3B4050"/>
			<stop  offset="0.2612" style="stop-color:#3B4068"/>
		</linearGradient>
		<path class="st70" d="M598.5,494.2c-1.1,0-2.2-0.4-3-1.1L549,452.7c-5.7-4.9-13-7.6-20.7-7.6H424.9c-7.7,0-15,2.7-20.7,7.6
			l-46.6,40.4c-0.8,0.7-1.9,1.1-3,1.1c-0.1,0-0.3,0-0.4,0l-243-22.7c-2.3-0.2-4-2-4-4.2v-207c0-2.2,1.7-4,4-4.2
			c52.4-4.4,192.8-14.6,365.3-14.6c170.8,0,312.4,10.2,365.3,14.7c2.3,0.2,4,2,4,4.2v207c0,2.2-1.7,4-4,4.2l-243,22.7
			C598.8,494.2,598.7,494.2,598.5,494.2z"/>
		<polygon class="st71" points="540.9,243.6 424.9,445.1 477.7,445.1 588.1,241.3 		"/>
		<polygon class="st71" points="622.8,243.6 506.8,445.1 554.1,455.2 669.9,241.3 		"/>
		<path class="st71" d="M846,260.3v14.5c0-2.2-1.7-4-4-4.2c-53-4.4-194.6-14.7-365.3-14.7c-172.5,0-313,10.2-365.3,14.6
			c-2.3,0.2-4,2-4,4.2v-14.5c0-2.2,1.7-4,4-4.2c52.4-4.4,192.8-14.6,365.3-14.6c170.8,0,312.4,10.2,365.3,14.7
			C844.2,256.4,846,258.1,846,260.3z"/>
		<path class="st72" d="M551,233.9H402.2c-2.6,0-4.6-2.1-4.6-4.6l0,0c0-2.6,2.1-4.6,4.6-4.6H551c2.6,0,4.6,2.1,4.6,4.6l0,0
			C555.6,231.8,553.6,233.9,551,233.9z"/>
		<rect x="433" y="117.5" class="st67" width="89.5" height="27.8"/>
		<rect x="433" y="145.3" class="st68" width="89.5" height="69.1"/>
	</g>
	<g>
		<path class="st73" d="M675.5,332.4c-19.3-7.6-19.2-5.4-32.8,5.9c-13.5,11.3-44.4-13.9-52.1-1.9c-7.7,12-2.6-7.4-10.5,0
			c0,0,7.9-18.7,9.3-51.5c0.5-12.7,38.8,4.9,38.8,4.9s20.2-4,21.9,2.8C657.4,322.1,675.5,332.4,675.5,332.4z"/>
		<path class="st74" d="M588.1,308.9c26.3-1.5,67.2,3.7,67.2,3.7l-18.2-22.1l-30.8-5.4c0,0-14.3,7.7-14.3,8S588.1,308.9,588.1,308.9
			z"/>
		<g>
			<g>
				<path class="st75" d="M568.5,386c0,0,5.5,0.3,7.7,20.9l3-10.4c0,0,7.8,28.2,26.8,31.7c19,3.4,17.5,13.9,17.5,13.9
					s3.4-15.1-3.3-28c0,0,17.2,2.1,23.5,14.1c0,0-3.3-18.5,3.6-21.9s16.2,12.9,16.2,12.9l-11.8-37.1l-15.2-34.4l-19-17.8l-17.7,2.9
					l-26.3,34.8l-4.5,11.4l-1.2,3.2L568.5,386z"/>
				<path class="st76" d="M582.3,466.6l-3.1,12.6c0,0-17.5-2.3-23.7-1.7c-6.3,0.5-7.4-7,4.9-9.5c10.1-2.1,18.2-8,18.2-8L582.3,466.6
					z"/>
				<polygon class="st77" points="598.6,401.9 582.3,466 573.4,464.4 582.3,398.9 588.5,395.1 				"/>
				<polygon class="st77" points="594.1,337.1 582.3,398.9 598.3,403.3 623.4,345.6 617.4,327.7 				"/>
				<path class="st78" d="M614.8,329.5c-14.2,24.4-48.9,33.7-46.3,56.5c0,0-3.2-9.3,3.5-21.2c6.8-11.9,14.2-34,26.4-35.3
					C610.6,328.2,614.8,329.5,614.8,329.5z"/>
				<path class="st76" d="M654.8,467.3l5.3,13.4c0,0-10.1,9-13.6,14.2c-3.5,5.2-10.1,1.4-4.4-9.8c4.7-9.2,5.2-19.2,5.2-19.2
					L654.8,467.3z"/>
				<polygon class="st77" points="643.2,402.2 654.8,467.3 646.1,469.5 627.1,406.2 631.2,400.2 				"/>
				<polygon class="st77" points="612.2,345.1 627.1,406.2 643.4,403.6 642.4,340.7 626,334.1 				"/>
				<path class="st78" d="M614.8,329.5c0,0,4.6,24.9,21.6,45.1c17,20.1,23.5,29.6,27.1,44.6c0,0-9.3-73.9-27.1-89.6
					C618.6,313.7,614.8,329.5,614.8,329.5z"/>
				<path class="st69" d="M616.5,266.9l21.8,3.6l-0.7,53.2c0,1.2-1,2.1-2.2,2.1h-36.8c-0.6,0-1.1-0.5-1.1-1.1l-0.6-54.3l13.2-3.4
					L616.5,266.9z"/>
				<path class="st78" d="M557.8,278.1c-0.2-5.5,2.6-7.9,1-10.2c-1.7-2.4-2.9-0.5-1.9,1.2c1,1.7-2.4,4.5-2.4,4.5s-7.4-1-9.5-2.6
					c-2.1-1.7-1.7-6-3.1-5.2s0.2,5.5,0.7,7.1c0.5,1.7,9.3,8.6,11.7,8.6S557.8,278.1,557.8,278.1z"/>
				<path class="st78" d="M582.7,295.8l-2.4,4.4l-21-21.1l-2.1-2.8l-4.8,4.5l22.2,28c2,2.5,5.2,3.6,8.4,2.9l0,0
					c2.2-0.5,4-1.9,5.1-3.9l3.6-6.2L582.7,295.8z"/>
				<path class="st78" d="M544.2,271.6c-0.9-3.6,2.7-7.2,3.9-5.7c1.2,1.5-3.3,3.3-1.8,6.3C547.7,275.1,544.2,271.6,544.2,271.6z"/>
				<path class="st69" d="M596.9,270.5l-0.5,0.2c-1.5,0.5-2.7,1.6-3.5,3l-11.7,21.5l12.6,7.8l6-9.1L596.9,270.5z"/>
				<polygon class="st79" points="595.6,299.8 599.7,285.9 599.1,294.8 				"/>
				<rect x="598.4" y="325.9" class="st79" width="38" height="3.6"/>
				<path class="st80" d="M610.4,263.2l-1.1,5.7c0,2.1,1.4,12.5,3.5,12.5l1.4-7.1c2.1,0,3.8-1.7,3.8-3.8v-13.5L610.4,263.2z"/>
				<path class="st78" d="M600.1,256.6c-6-7.8-0.7-14.6-0.4-20.1l0.8,1.4c0,0,2.9-7.7,10.8-9.9c7.9-2.1,8.8-5.8,8.8-5.8l-2.7,7.3
					c0,0,9.6,1.1,12.9-3.2c0,0,2.2,9.1-1,13.1l3-2c0,0-1.1,12.2-6,13.8h2.4c0,0-5.6,10.5-9.4,11.5c-3.7,1.1-15.8-8-15.8-8
					L600.1,256.6z"/>
				<path class="st69" d="M638.3,270.5l2.8,0.2c1.5,0.5,2.7,1.6,3.5,3l11.7,21.5l-12.6,7.8l-5.4-8.2V270.5z"/>
				<path class="st81" d="M622,267.8l17.6,2.3c2.6,0.3,4.9,2,6.1,4.3l6.8,13.6L613.8,311c-1.8,1.1-4.2,0.6-5.5-1.1L588,282.5
					l5.4-10.4c0.5-1,1.5-1.7,2.6-1.9l4.9-0.8h5l5.6,9.6L622,267.8z"/>
				<polygon class="st82" points="603.2,264.7 600.1,268.9 611.8,280.3 609.2,267.5 				"/>
				<path class="st83" d="M600.3,254.9c0.5,4.1,2.4,13.7,9,14c8.4,0.4,11.2-7.9,11.7-11.4c0.3-2.4,3.1-11.7-2.5-11.9
					c-5.6-0.2-17.8,1.1-18.1,3.5C600,251.5,600.1,253.4,600.3,254.9z"/>
				<path class="st83" d="M618.7,254.1c0.5-0.8,1.6-2.8,2.8-1.4c1.1,1.4-0.7,6.5-2.1,6.4L618.7,254.1z"/>
				<path class="st69" d="M593.7,303l-7.4,8.2c-1.5,1.7-3.8,2.6-6.1,2.5l0,0c-2.2-0.1-4.3-1.3-5.7-3.1l-20.3-27.5l5-4l20,20.1l1.9-4
					l10.5,3L593.7,303z"/>
				<path class="st78" d="M679.6,278.1c0.2-5.5-2.6-7.9-1-10.2c1.7-2.4,2.9-0.5,1.9,1.2c-1,1.7,2.4,4.5,2.4,4.5s7.4-1,9.5-2.6
					c2.1-1.7,1.7-6,3.1-5.2s-0.2,5.5-0.7,7.1c-0.5,1.7-9.3,8.6-11.7,8.6C680.8,281.4,679.6,278.1,679.6,278.1z"/>
				<path class="st78" d="M654.7,295.8l2.4,4.4l21-21.1l2.1-2.8l4.8,4.5l-22.2,28c-2,2.5-5.2,3.6-8.4,2.9l0,0
					c-2.2-0.5-4-1.9-5.1-3.9l-3.6-6.2L654.7,295.8z"/>
				<path class="st78" d="M693.2,271.6c0.9-3.6-2.7-7.2-3.9-5.7c-1.2,1.5,3.3,3.3,1.8,6.3C689.7,275.1,693.2,271.6,693.2,271.6z"/>
				<path class="st69" d="M643.7,303l7.4,8.2c1.5,1.7,3.8,2.6,6.1,2.5l0,0c2.2-0.1,4.3-1.3,5.7-3.1l20.3-27.5l-5-4l-20,20.1l-1.9-4
					l-10.5,3L643.7,303z"/>
				<path class="st78" d="M606.1,246.6c0.1-2.9-5.9,10-5.9,10l-2.5-7.2l2.9-6l10.5-0.9l9.9,1.3l2.6,9.2l-1.6,4.7l-10.4-9.3l4.1,8.6
					C615.6,257.1,605.9,250.9,606.1,246.6z"/>
				<circle class="st84" cx="550.3" cy="239.2" r="10.9"/>
				<path class="st85" d="M552.9,241.3c0,3.1-2.5,5.6-5.6,5.6c-3.1,0-5.6-2.5-5.6-5.6c0-3.1,2.5-5.6,5.6-5.6
					C550.4,235.7,552.9,238.2,552.9,241.3z"/>
				<path class="st86" d="M549.3,241.3c0,1.1-0.9,2.1-2.1,2.1c-1.1,0-2.1-0.9-2.1-2.1c0-1.1,0.9-2.1,2.1-2.1
					C548.4,239.2,549.3,240.2,549.3,241.3z"/>
				<circle class="st84" cx="680" cy="239.1" r="10.9"/>
				<path class="st84" d="M542.5,231.6c7.1-17.1,36-2.7,37.7-18.2c1.6-15.4,21.9-27.9,21.9-27.9L618,183c0,0,5.9,21.6,27.8,24.3
					c21.9,2.7,36.5,24.3,36.5,24.3l-6.8,0.9c0,0-3.7-9.6-12.1-15.4c-8.4-5.8-12.2-2.6-12.2-2.6s-1.3-3.8-3.9-5.5
					c-2.6-1.8-4.3,0.2-9-1.9s-16.5-13.1-16.5-13.1s-10.6-6.3-10.7-7.3c-0.1-1-5.7,0.9-5.7,0.9s-9.1,5.4-14.9,11.4
					c-5.8,6-9.7,10.9-8.4,16.5c1.3,5.6,1.1,4.7,1.1,4.7l-2.9,0.4c0,0-5.2,3.8-13.6,2.8c-8.4-1-24.5,2.1-16.3,7.9
					C558.4,237,542.5,231.6,542.5,231.6z"/>
				<circle class="st84" cx="608.4" cy="179.8" r="10.9"/>
				<path class="st85" d="M610.9,180.9c0,3.1-2.5,5.6-5.6,5.6c-3.1,0-5.6-2.5-5.6-5.6s2.5-5.6,5.6-5.6
					C608.4,175.3,610.9,177.9,610.9,180.9z"/>
				<circle class="st86" cx="605.3" cy="180.9" r="2.1"/>
				<path class="st85" d="M681.1,240c0,3.1-2.5,5.6-5.6,5.6c-3.1,0-5.6-2.5-5.6-5.6c0-3.1,2.5-5.6,5.6-5.6
					C678.6,234.4,681.1,236.9,681.1,240z"/>
				<path class="st86" d="M677.6,240c0,1.1-0.9,2.1-2.1,2.1c-1.1,0-2.1-0.9-2.1-2.1c0-1.1,0.9-2.1,2.1-2.1
					C676.6,237.9,677.6,238.8,677.6,240z"/>
				<polygon class="st81" points="620.2,262.3 615.9,263.9 611.8,280.3 613.6,285.9 622.6,281.4 623.5,274.4 				"/>
				<ellipse class="st66" cx="612.9" cy="537.6" rx="58.7" ry="6.3"/>
				<polygon class="st87" points="616.3,361.9 612.2,346.7 607.2,382.8 				"/>
				<circle class="st88" cx="611.8" cy="285.1" r="2.1"/>
				<circle class="st88" cx="611.8" cy="297.7" r="2.1"/>
			</g>
			<g>
				<path class="st89" d="M558.8,524.8c6.5-0.5,8.9-15.4,8.9-15.4s-0.6,17.8,11,18.4c11.6,0.6,18.9-11.4,18.9-11.4
					s-2.6,11.3,2.1,11.4c4.7,0.2,9-6.7,9-6.7s-1.3,9.2,5.1,8.6c6.5-0.6,17.8-8.6,17.8-8.6s-1.7,12.1,6.6,11.7c8.3-0.4,8.8-7,8.8-7
					s3.5,10.1,11,7.7c7.5-2.4,5.4-10.3,5.4-10.3s5.3,8.6,0.3,11.2c-5,2.6-48.1,5.1-48.1,5.1l-44.6-6L558.8,524.8z"/>
				<path class="st90" d="M557.1,535.6c-15.3-7.2-10.1-30.8-10.1-30.8s-1.2,19.5,19.6,19.5c0,0,12.3,4.4,24.6-14.6
					c0,0-8,18.5,11.6,23.1c19.6,4.6,24.3-15.1,24.3-15.1s0.9,17.7,9.3,17.8c8.4,0.1,11.4-4.3,11.4-4.3v4.3c0,0,15,0.5,19.7-11.3
					c0,0,2.6,4.5,0,13.9C667.5,538.3,582.2,547.4,557.1,535.6z"/>
				<polygon class="st90" points="653.6,513.6 658.9,504.7 655.8,515.7 653.6,516.3 				"/>
				<polygon class="st90" points="595.9,476 601.2,467.1 598.1,478.1 595.9,478.8 				"/>
			</g>
		</g>
		<path class="st90" d="M589.7,519.9c15.2-38.1,66.7-44.1,75.7-80.5c8.9-36.4-5.2-39.3-5.2-39.3l-0.6-5.1c0,0,10,10.1,14.3,22.8
			c4.3,12.6-22.3,38.8-12,45.6c0,0-10.6-1.1-20.9,15.3c-10.4,16.4-55.2,43.3-28,52.5c27.2,9.2-17,5.6-17,5.6l-6.2-5.6
			c0,0-3.8-3.5-3.8-4.8C586,525.2,589.7,519.9,589.7,519.9z"/>
		<path class="st90" d="M587.9,428.9c18.3-7,1-28.1,3.7-33.8c0,0-3.8,8.5-1.7,11.9c2.1,3.4,8.5,13-2.1,19.4V428.9z"/>
		<path class="st90" d="M570.2,521.6c-9.5-18.3,10.2-32.6,5.8-42.8h-3.9c0,0,0.9-0.2,1.3,4.6c0.4,4.8-5.6,4.8-5.6,4.8s7,1.6,4.3,4.3
			c-2.7,2.8-25.5,20.3-13.2,30.7C571,533.6,570.2,521.6,570.2,521.6z"/>
	</g>
	<path class="st90" d="M587.9,464.1c-4.5-11.6-17.8-13.5-12.4-27c0,0-5.3,5.5-1.3,13.5c4.1,8,9.3,10.2,10.2,15.7L587.9,464.1z"/>
	<path class="st90" d="M587.9,535.4c9.2-25.6,38.7-22.5,36.2-41.2c-2.6-18.7-17.1-16.6-17.1-16.6v-2c0,0,11.2-0.7,15.4,6
		c4.2,6.7,11.1,12.6,11.1,12.6s-6-5-5.6,4.4c0.4,9.4-0.3,8.1-14,14.1c-13.7,6-5.6,22.6-5.6,22.6H587.9z"/>
	<g>
		<rect x="271.1" y="268.7" class="st81" width="128.4" height="7.6"/>
		<rect x="271.1" y="268.7" class="st91" width="89.9" height="7.6"/>
	</g>
	<path class="st92" d="M318.1,368.1c-1-2.4-0.5-3.9-0.5-3.9s0.9,2,0.8,2.9C318.3,367.9,318.1,368.1,318.1,368.1z"/>
	<g>
		<path class="st68" d="M732.8,220.3h-44.2c-4.2,0-7.5-3.4-7.5-7.5v-44.2c0-4.2,3.4-7.5,7.5-7.5h44.2c4.2,0,7.5,3.4,7.5,7.5v44.2
			C740.3,217,737,220.3,732.8,220.3z"/>
		<path class="st93" d="M740.8,220.3h-44.2c-4.2,0-7.5-3.4-7.5-7.5v-44.2c0-4.2,3.4-7.5,7.5-7.5h44.2c4.2,0,7.5,3.4,7.5,7.5v44.2
			C748.3,217,744.9,220.3,740.8,220.3z"/>
	</g>
	<g>
		<path class="st68" d="M782.8,554.1H827c4.2,0,7.5-3.4,7.5-7.5v-44.2c0-4.2-3.4-7.5-7.5-7.5h-44.2c-4.2,0-7.5,3.4-7.5,7.5v44.2
			C775.3,550.7,778.6,554.1,782.8,554.1z"/>
		<path class="st93" d="M774.8,554.1H819c4.2,0,7.5-3.4,7.5-7.5v-44.2c0-4.2-3.4-7.5-7.5-7.5h-44.2c-4.2,0-7.5,3.4-7.5,7.5v44.2
			C767.3,550.7,770.7,554.1,774.8,554.1z"/>
	</g>
	<rect x="514.5" y="131.4" class="st81" width="128.4" height="7.6"/>
	<rect x="581.9" y="131.4" class="st91" width="46.5" height="7.6"/>
	<g>
		<path class="st94" d="M822.9,273.7l130-134.2c2.1-2.2,2-5.6-0.1-7.7l-9.1-8.8c-2.2-2.1-5.6-2-7.7,0.1L806,257.3L822.9,273.7z"/>
		<path class="st69" d="M902.6,153l-41.5,42.8c-1.9,2-1.8,5.1,0.1,7l17.9,17.3c2,1.9,5.1,1.8,7-0.1l41.5-42.8c1.9-2,1.8-5.1-0.1-7
			l-17.9-17.3C907.7,151,904.5,151,902.6,153z"/>
		<path class="st95" d="M927.6,177.1l-41.5,42.8c-1.9,2-5,2-7,0.1l-17.9-17.3c-2-1.9-2-5-0.1-7l0,0l12.5,15.9
			c6.5,7.4,14.2,2.9,16.1,0.9l35.6-44.5l2.2,2.1C929.4,172,929.5,175.2,927.6,177.1z"/>
		<path class="st93" d="M929.4,110.2l6.4-6.6c1.4-1.4,1.3-3.7-0.1-5.1l-4-3.9c-1.4-1.4-3.7-1.3-5.1,0.1l-6.4,6.6L929.4,110.2z"/>
		<path class="st96" d="M761.7,336c6.8,6.3,14.2,6.7,14.2,6.7s-7.4,4.9-15.9-1.6C751.7,334.5,761.7,336,761.7,336z"/>
		<g>
			<path class="st96" d="M769.6,359c-6.2,0-12-2.4-16.4-6.7c-9.4-9.1-9.6-24.1-0.5-33.4c4.4-4.5,10.3-7.1,16.6-7.2
				c6.4-0.1,12.3,2.3,16.8,6.7c4.5,4.4,7.1,10.3,7.2,16.6c0.1,6.3-2.3,12.3-6.7,16.8c-4.4,4.5-10.3,7.1-16.6,7.2
				C769.9,359,769.7,359,769.6,359z M769.6,316.7c-0.1,0-0.2,0-0.3,0c-5,0.1-9.6,2.1-13.1,5.7c-7.1,7.4-7,19.2,0.4,26.3l0,0
				c3.6,3.5,8.3,5.3,13.3,5.2c5-0.1,9.6-2.1,13.1-5.7c3.5-3.6,5.3-8.3,5.2-13.3c-0.1-5-2.1-9.6-5.7-13.1
				C779.1,318.6,774.5,316.7,769.6,316.7z"/>
		</g>
		<linearGradient id="SVGID_49_" gradientUnits="userSpaceOnUse" x1="706.8073" y1="426.1813" x2="1034.6635" y2="68.7537">
			<stop  offset="5.586590e-03" style="stop-color:#6DBF96"/>
			<stop  offset="0.1711" style="stop-color:#71C094"/>
			<stop  offset="0.3502" style="stop-color:#7EC290"/>
			<stop  offset="0.5357" style="stop-color:#94C688"/>
			<stop  offset="0.7255" style="stop-color:#B2CB7D"/>
			<stop  offset="0.917" style="stop-color:#D9D26F"/>
			<stop  offset="1" style="stop-color:#ECD568"/>
		</linearGradient>
		<path class="st97" d="M912.3,100.5L709.6,309.7c-1.7,1.8-2.5,4.2-2.2,6.6c0.7,5.6,2.8,16.3,8.4,25.5c8.1,13.3,19.2,13.2,11.3,42
			c-7.2,26.3,7.8,68.7,22.3,86.1c2.2,2.6,6,3.2,9,1.4l23.8-14.5c4-2.4,4.5-8,1.1-11.2c-6-5.6-13.7-15.6-15.8-31.9
			c-3.7-28.2-5.9-56.8-5.9-56.8l-5.9-7.2l75.7-78.1c1.6-1.7,1.6-4.3-0.1-5.9l-16.6-16.1c-1.7-1.6-1.7-4.2-0.1-5.9L933.5,121
			c2.2-2.3,2.2-5.9-0.1-8.1l-12.9-12.5C918.1,98.2,914.5,98.2,912.3,100.5z"/>
		<path class="st98" d="M785.4,452.7c-0.4,1.7-1.5,3.2-3.1,4.2l-23.8,14.5c-2.9,1.8-6.8,1.2-9-1.4c-14.4-17.3-29.4-59.8-22.3-86.1
			c7.9-28.9-3.2-28.7-11.4-42c-5.6-9.3-7.7-19.9-8.4-25.5c-0.3-2.4,0.5-4.9,2.2-6.6l4.1-4.2c-1.1,1.6-1.6,3.6-1.3,5.5
			c0.7,5.6-1,18.4,4.7,27.7c8.1,13.3,23,11,15.1,39.9c-7.2,26.3,4.4,73.6,18.8,91c2.2,2.6,9.5-1.7,12.4-3.5L785.4,452.7z"/>
		
			<ellipse transform="matrix(0.9783 -0.2074 0.2074 0.9783 -42.3963 165.7765)" class="st99" cx="769.6" cy="285.1" rx="16.7" ry="16.7"/>
		
			<ellipse transform="matrix(0.9783 -0.2074 0.2074 0.9783 -41.5022 165.6828)" class="st81" cx="769.6" cy="280.8" rx="16.7" ry="16.7"/>
		<path class="st69" d="M912.7,100l-21.6,8.2c-2,0.7-3.7,1.9-5.2,3.4L714.3,288.9c0,0-7.1,9-3.1,19.3L912.7,100z"/>
		
			<ellipse transform="matrix(0.9999 -1.594459e-02 1.594459e-02 0.9999 -4.3795 12.3059)" class="st94" cx="769.6" cy="280.8" rx="9.2" ry="9.2"/>
		<path class="st100" d="M712.7,316.7l18.6-18.6c5.1-5.1,13.4-5,18.3,0.2l9.7,10.1c2.5,2.6,6,4.1,9.7,3.9l0,0
			c3.3-0.1,6.4-1.5,8.7-3.8l22.7-22.9c2.7-2.7,4.1-6.6,3.6-10.4l-4.5-41.1c-0.4-3.8,0.9-7.6,3.6-10.4l119.2-121.2"/>
		<path class="st81" d="M826.8,205.5l55.2-57c1.3-1.3,1.2-3.4-0.1-4.7l0,0c-1.3-1.3-3.4-1.2-4.7,0.1l-55.2,57
			c-1.3,1.3-1.2,3.4,0.1,4.7l0,0C823.5,206.9,825.5,206.8,826.8,205.5z"/>
		<path class="st81" d="M813,219.8l4.8-4.9c1.3-1.3,1.2-3.4-0.1-4.7l0,0c-1.3-1.3-3.4-1.2-4.7,0.1l-4.8,4.9
			c-1.3,1.3-1.2,3.4,0.1,4.7l0,0C809.6,221.2,811.7,221.1,813,219.8z"/>
	</g>
	<path class="st98" d="M743.6,358.8l4.7-2.5c2.6-1.3,5.7-0.5,7.3,1.8l0,0c0.7,1,1,2.2,1,3.4c-0.3,8.3-1.1,42.3,4.8,59.3
		c0.9,2.7-0.3,5.7-2.9,6.9l-6.7,3.3c-3,1.5-6.6,0-7.8-3.1c-3.2-8.7-8.5-25.3-6.7-36.7c2.2-13.7,4.3-19.5,3.3-26.7
		C740.3,362.2,741.5,359.9,743.6,358.8z"/>
	<g>
		
			<rect x="118.5" y="340.5" transform="matrix(0.8762 0.482 -0.482 0.8762 205.4744 -30.6157)" class="st101" width="87.7" height="88.3"/>
		<path class="st101" d="M267.4,442.4l-15.1,61c-4,16.1-20.3,25.8-36.3,21.8l0,0c-10.4-2.6-18.6-10.6-21.4-20.9l-17-60.9l22.2-33.5
			L267.4,442.4z"/>
		
			<ellipse transform="matrix(0.7071 -0.7071 0.7071 0.7071 -229.3397 278.657)" class="st93" cx="221.7" cy="416.2" rx="52.2" ry="52.2"/>
		
			<ellipse transform="matrix(0.9604 -0.2788 0.2788 0.9604 -107.2223 78.2971)" class="st102" cx="221.7" cy="416.2" rx="36.1" ry="36.1"/>
		<g>
			<path class="st65" d="M233.9,433.6c-4.5-2.5-6.2-8.2-3.7-12.7c2.5-4.5,8.2-6.2,12.7-3.7c4.5,2.5,6.2,8.2,3.7,12.7
				C244.2,434.4,238.5,436,233.9,433.6z"/>
			<path class="st103" d="M200.4,415.1c-4.5-2.5-6.2-8.2-3.7-12.7c2.5-4.5,8.2-6.2,12.7-3.7c4.5,2.5,6.2,8.2,3.7,12.7
				C210.6,416,205,417.6,200.4,415.1z"/>
			<path class="st91" d="M208,441.1c-4.5-2.5-6.2-8.2-3.7-12.7c2.5-4.5,8.2-6.2,12.7-3.7c4.5,2.5,6.2,8.2,3.7,12.7
				C218.2,441.9,212.5,443.6,208,441.1z"/>
			<path class="st81" d="M226.4,407.6c-4.5-2.5-6.2-8.2-3.7-12.7c2.5-4.5,8.2-6.2,12.7-3.7c4.5,2.5,6.2,8.2,3.7,12.7
				C236.6,408.4,230.9,410.1,226.4,407.6z"/>
		</g>
		<path class="st101" d="M56.7,326.6L13.3,372c-11.4,12-11,30.9,1.1,42.3l0,0c7.8,7.4,18.9,10,29.1,6.9l60.5-18.3l16.4-36.7
			L56.7,326.6z"/>
		
			<ellipse transform="matrix(0.7071 -0.7071 0.7071 0.7071 -217.97 175.8985)" class="st93" cx="103.3" cy="351.1" rx="52.2" ry="52.2"/>
		
			<ellipse transform="matrix(0.9805 -0.1964 0.1964 0.9805 -66.9274 27.1295)" class="st102" cx="103.3" cy="351.1" rx="36.1" ry="36.1"/>
		<path class="st11" d="M117.2,325.8c-13.9-7.7-31.4-2.6-39.1,11.3c-7.7,13.9-2.6,31.4,11.3,39.1c13.9,7.7,31.4,2.6,39.1-11.3
			C136.2,351,131.1,333.5,117.2,325.8z M94,368c-9.4-5.2-12.8-16.9-7.6-26.3c5.2-9.4,16.9-12.8,26.3-7.6c9.4,5.2,12.8,16.9,7.6,26.3
			C115.2,369.8,103.4,373.2,94,368z"/>
		<path class="st104" d="M158.2,403.3l-11.4-6.3c-1.8-1-2.5-3.3-1.5-5.2l0,0c1-1.8,3.3-2.5,5.2-1.5l11.4,6.3c1.8,1,2.5,3.3,1.5,5.2
			l0,0C162.3,403.7,160,404.4,158.2,403.3z"/>
		<path class="st11" d="M109.2,354.3c-1.8,3.2-5.8,4.4-9.1,2.6c-3.2-1.8-4.4-5.8-2.6-9.1c1.8-3.2,5.8-4.4,9.1-2.6
			C109.8,347,111,351,109.2,354.3z"/>
	</g>
	<path class="st105" d="M273.9,416c-1.5-16.8-11.5-32.6-28.1-41.4c-8.1-4.3-16.9-6.4-25.6-6.5c-4.5-0.1-8.9-1.3-12.9-3.4l-56-29.4
		c-4.1-2.2-7.7-5.2-10.3-9c-4.7-6.8-11.2-12.6-19.2-16.8c-14.5-7.6-31.1-8.3-45.5-3.2c15.4-9.2,35.2-10.3,52.1-1
		c9.6,5.3,16.8,13.1,21.4,22.1l66.8,36.8c10.1-1,20.6,1,30.1,6.2C264.1,379.9,273.8,397.6,273.9,416z"/>
	<g>
		<g>
			<g>
				<polygon class="st106" points="346.8,337.4 307.7,339 309.8,352.7 334.4,354.4 				"/>
				<path class="st106" d="M350.1,336.5l-20.9,5.3l-6,52.3c0,1.2,1,2.1,2.2,2.1h36.8c0.6,0,1.1-0.5,1.1-1.1l6.4-55.1l-13.2-3.4
					L350.1,336.5z"/>
				<polygon class="st79" points="328.9,382 323.2,386.7 323.6,383.1 328.9,378.1 				"/>
				<polygon class="st79" points="327.3,371.8 325.1,371.8 325.6,367.8 328,368.5 				"/>
				<path class="st77" d="M408.8,347.7c0.2-5.5-2.6-7.9-1-10.2c1.7-2.4,2.9-0.5,1.9,1.2c-1,1.7,2.4,4.5,2.4,4.5s7.4-1,9.5-2.6
					c2.1-1.7,1.7-6,3.1-5.2c1.4,0.7-0.2,5.5-0.7,7.1c-0.5,1.7-9.3,8.6-11.7,8.6C410,351,408.8,347.7,408.8,347.7z"/>
				<path class="st77" d="M383.9,365.4l2.4,4.4l21-21.1l2.1-2.8l4.8,4.5l-22.2,28c-2,2.5-5.2,3.6-8.4,2.9l0,0
					c-2.2-0.5-4-1.9-5.1-3.9l-3.6-6.2L383.9,365.4z"/>
				<path class="st77" d="M422.4,341.2c0.9-3.6-2.7-7.2-3.9-5.7c-1.2,1.5,3.3,3.3,1.8,6.3C418.8,344.8,422.4,341.2,422.4,341.2z"/>
				<path class="st106" d="M369.7,340.1l0.5,0.2c1.5,0.5,2.7,1.6,3.5,3l11.7,21.5l-12.6,7.8l-5.4-8.2L369.7,340.1z"/>
				<polygon class="st106" points="295.3,462.7 230.2,451.4 227.9,460.2 291.4,478.7 297.4,474.6 				"/>
				<polygon class="st106" points="346.8,431.1 297.4,474.2 286.6,463 313.9,412.5 338.9,414.3 				"/>
				<polyline class="st107" points="320.7,412.5 288.5,463.9 227.9,453 				"/>
				<polygon class="st106" points="395.5,460.6 416.4,523.2 425.1,521.1 411.6,456.4 405.1,453 				"/>
				<polygon class="st106" points="367.2,405.8 410.3,455.2 399.2,466 346.8,431.1 350.4,413.7 				"/>
				<polyline class="st107" points="352.4,422.8 400,461.7 418.3,521.1 				"/>
				<polygon class="st108" points="362.4,399.9 366,401.6 371.3,410 346.8,431.1 313.9,412.5 320.2,401.7 324.4,399.9 				"/>
				<polygon class="st104" points="288,460.5 289.5,466 286.6,466 286.6,460.5 				"/>
				<path class="st81" d="M300.1,471.9c0,0-9.1-9.5-13.5-7s-3.1,15,2.5,16.6C289.1,481.5,300.1,478.7,300.1,471.9z"/>
				<polygon class="st104" points="400,461.7 395.5,464.4 396.6,466.1 403.8,465.1 				"/>
				<path class="st81" d="M407.6,450.1c0,0-9.6,9-7.2,13.4c2.5,4.4,15,3.2,16.7-2.3C417.1,461.1,414.5,450.1,407.6,450.1z"/>
				<rect x="324.4" y="396.4" class="st79" width="38" height="3.6"/>
				
					<linearGradient id="SVGID_50_" gradientUnits="userSpaceOnUse" x1="13355.6133" y1="404.1549" x2="13356.2822" y2="388.2718" gradientTransform="matrix(-1 0 0 1 13703.4473 0)">
					<stop  offset="5.586590e-03" style="stop-color:#E6E7E8"/>
					<stop  offset="0.505" style="stop-color:#DDE4E6"/>
					<stop  offset="1" style="stop-color:#D0DEE2"/>
				</linearGradient>
				<path class="st109" d="M366.4,376.1l0.4,12.9c0,1.6-0.8,3.1-2.2,3.8l-12.2,6.9c-1.6,0.9-3.5,0.7-4.8-0.5l-17.9-15.1
					c-0.8-0.7-1.3-1.6-1.5-2.7l-1.7-12.8l0.7-8L366.4,376.1z"/>
				
					<linearGradient id="SVGID_51_" gradientUnits="userSpaceOnUse" x1="13355.8711" y1="389.9337" x2="13356.54" y2="374.0505" gradientTransform="matrix(-1 0 0 1 13703.4473 0)">
					<stop  offset="5.586590e-03" style="stop-color:#E6E7E8"/>
					<stop  offset="0.505" style="stop-color:#DDE4E6"/>
					<stop  offset="1" style="stop-color:#D0DEE2"/>
				</linearGradient>
				<path class="st110" d="M366.4,368l0.4,12.9c0,1.6-0.8,3.1-2.2,3.8l-12.2,6.9c-1.6,0.9-3.5,0.7-4.8-0.5l-17.9-15.1
					c-0.8-0.7-1.3-1.6-1.5-2.7l-1.7-12.8l0.7-8L366.4,368z"/>
				
					<linearGradient id="SVGID_52_" gradientUnits="userSpaceOnUse" x1="13354.3428" y1="381.3583" x2="13356.1777" y2="348.323" gradientTransform="matrix(-1 0 0 1 13703.4473 0)">
					<stop  offset="5.586590e-03" style="stop-color:#E6E7E8"/>
					<stop  offset="0.505" style="stop-color:#DDE4E6"/>
					<stop  offset="1" style="stop-color:#D0DEE2"/>
				</linearGradient>
				<path class="st111" d="M367.1,358.4l0.3,8.1c0.1,2.3-1.2,4.4-3.2,5.5l-10.7,5.5c-1.9,0.9-4.1,0.8-5.8-0.3l-15.5-9.8
					c-1.3-0.8-2.2-2.1-2.6-3.6l-3.1-12.8l6.5-7.9l34.9,2.3L367.1,358.4z"/>
				
					<linearGradient id="SVGID_53_" gradientUnits="userSpaceOnUse" x1="13356.4014" y1="364.0179" x2="13356.8574" y2="343.2914" gradientTransform="matrix(-1 0 0 1 13703.4473 0)">
					<stop  offset="5.586590e-03" style="stop-color:#E6E7E8"/>
					<stop  offset="0.505" style="stop-color:#DDE4E6"/>
					<stop  offset="1" style="stop-color:#D0DEE2"/>
				</linearGradient>
				<path class="st112" d="M366.4,344.3l0.4,12.9c0,1.6-0.8,3.1-2.2,3.8l-12.2,6.9c-1.6,0.9-3.5,0.7-4.8-0.5l-17.9-15.1
					c-0.8-0.7-1.3-1.6-1.5-2.7l-1.7-12.8l0.7,3.2L366.4,344.3z"/>
				
					<linearGradient id="SVGID_54_" gradientUnits="userSpaceOnUse" x1="13356.8037" y1="346.9438" x2="13356.9775" y2="339.0549" gradientTransform="matrix(-1 0 0 1 13703.4473 0)">
					<stop  offset="5.586590e-03" style="stop-color:#E6E7E8"/>
					<stop  offset="0.505" style="stop-color:#DDE4E6"/>
					<stop  offset="1" style="stop-color:#D0DEE2"/>
				</linearGradient>
				<polygon class="st113" points="326.5,336.9 327.7,345.7 328.2,349.1 332.3,344.1 333.1,343.1 366.5,345.3 366.4,344.3 
					327.3,340.1 				"/>
				<path class="st81" d="M366,338.5l-6.9-2.2l-19.7,1.1l-6.4,8.5l9,6.6c6,4.4,14.3,3.9,19.7-1.2l6.2-5.9L366,338.5z"/>
				<path class="st80" d="M356.2,332.8v7.4c0,2.1-1.7,3.8-3.8,3.8l0,0c-2.1,0-3.8-1.7-3.8-3.8v-13.5L356.2,332.8z"/>
				<path class="st114" d="M364.7,329.2l0.2,0.1c0.8,0.2,1.3,1.2,1,2c-0.7,1.9-2.3,4.9-4.9,5.1C357.3,336.5,364.7,329.2,364.7,329.2
					z"/>
				<path class="st81" d="M367.6,323.3c-0.1,2.1-2.2,6-2.2,6l0.6-6.4L367.6,323.3z"/>
				<path class="st83" d="M366.3,324.5c-0.5,4.1-2.4,13.7-9,14c-8.4,0.4-11.2-7.9-11.7-11.4c-0.3-2.4-3.1-11.7,2.5-11.9
					c5.6-0.2,17.8,1.1,18.1,3.5C366.5,321.2,366.5,323,366.3,324.5z"/>
				<path class="st81" d="M351.5,322.6c-1.2,5-3.2,6.2-3.2,6.2l-1.4-7.5L351.5,322.6z"/>
				<path class="st83" d="M347.9,323.7c-0.5-0.8-1.6-2.8-2.8-1.4c-1.1,1.4,0.7,6.5,2.1,6.4L347.9,323.7z"/>
				<path class="st115" d="M348.7,323.2c0,0-0.4,4.1,0.9,5.1c0.5,0.4,0.7,0.9,0.6,1.5l-1.1,5.1c-0.1,0.5-0.7,0.7-1.1,0.4
					c-1.8-1.6-6-5.9-6-12.9c0-8.3,4.5-12.1,9.9-13.3c5-1.1,14.6,0.4,15.7,10.8l-6.5,3.1l-12-0.3L348.7,323.2z"/>
				<path class="st81" d="M363,323.7c0,0-1.2,3.9-4.5,5.3c0,0,1.2-1.2,1.8-2.7c0,0-2.6,3.3-5,3.5c0,0,2.7-4.2,2.1-7.8
					C356.7,318.5,363,323.7,363,323.7z"/>
				<polygon class="st79" points="348.7,323.2 361,325.8 361,315.9 361,315.8 349.1,319.4 				"/>
				<polygon class="st108" points="361,315.9 361,325.8 361,325.8 368,323.1 368,319.9 				"/>
				<path class="st114" d="M345.6,321.3c0,1.4,0.9,2.5,2.1,2.5s2.1-1.1,2.1-2.5c0-1.4-0.9-2.5-2.1-2.5S345.6,319.9,345.6,321.3z"/>
				<path class="st79" d="M347.3,321.3c0,0.3,0.2,0.5,0.5,0.5s0.5-0.2,0.5-0.5c0-0.3-0.2-0.5-0.5-0.5S347.3,321,347.3,321.3z"/>
				<polygon class="st79" points="371,369.4 366.9,355.5 367.5,364.5 				"/>
				<path class="st116" d="M284.8,386.5l2,1.2c0.7,0.4,0.9,1.4,0.4,2.1l-3.1,4c-0.5,0.7-1.5,0.8-2.1,0.2l-11.2-9.5
					c-0.6-0.5-0.7-1.3-0.2-1.9l1-1.4c0.4-0.6,1.2-0.8,1.8-0.5L284.8,386.5C284.7,386.5,284.7,386.5,284.8,386.5z"/>
				<path class="st79" d="M278.1,380l-3.6,2.3c-0.1,0.1-0.2,0.2-0.3,0.3l-1.9,2.8c-0.3,0.4-0.3,0.9,0,1.3l3,4.4
					c0.2,0.3,0.2,0.6,0.2,0.9l-0.2,0.6c-0.1,0.5,0.1,1,0.5,1.3l0,0c0.5,0.3,1.1,0.2,1.4-0.2l6.1-7c0.4-0.4,1-0.5,1.5-0.2l2.5,1.6
					l0.7-0.7l-2.6-4.3c0,0,0,0,0-0.1l-1.8-3.3c-0.2-0.4-0.7-0.7-1.2-0.6l-3.9,0.7C278.4,379.9,278.2,379.9,278.1,380z"/>
				<path class="st106" d="M307.7,339l-0.6,0.1c-2.7,0.2-5.1,1.7-6.5,4l-22.4,36.7l7.1,3.2l24.4-30.3l7.1-0.7l1.1-6.1L307.7,339z"/>
				<path class="st117" d="M323.2,339.8c0,0-12.8-0.8-12.5,0.7c0.2,1.5,15.4,0.5,15.4,0.5L323.2,339.8z"/>
				<path class="st118" d="M302.2,343.1c2.5,6.5-3.4,23.3-3.4,23.3l9.9-12.2L302.2,343.1z"/>
				<path class="st81" d="M308.7,338.3l2,15.2c0.1,0.5-0.2,1-0.7,1.2l0,0c-0.5,0.2-1.1,0-1.4-0.5l-7.4-12.7
					c-0.1-0.2-0.1-0.4,0.1-0.5l2.7-2.1c0,0,0.1-0.1,0.1-0.1l4-0.9C308.4,338,308.6,338.1,308.7,338.3z"/>
				<polygon class="st106" points="372.9,372.6 382.7,383.5 389.9,383.1 412.4,352.7 407.3,348.7 387.3,368.8 385.5,364.8 
					375,367.8 				"/>
				<path class="st81" d="M387.3,368.8l2.5,14.7c0.1,0.4-0.2,0.8-0.6,0.8l-4,0.5c-0.1,0-0.2,0-0.3,0l-3.6-1.1
					c-0.4-0.1-0.6-0.5-0.5-0.9l5.2-16.7L387.3,368.8z"/>
				
					<linearGradient id="SVGID_55_" gradientUnits="userSpaceOnUse" x1="13335.5527" y1="363.9969" x2="13327.5234" y2="335.982" gradientTransform="matrix(-1 0 0 1 13703.4473 0)">
					<stop  offset="5.586590e-03" style="stop-color:#E6E7E8"/>
					<stop  offset="0.505" style="stop-color:#DDE4E6"/>
					<stop  offset="1" style="stop-color:#D0DEE2"/>
				</linearGradient>
				<path class="st119" d="M366,338.5c0,0-0.3,16.4,1.5,21.6c1.5,4.3,9.5-3.6,12.3-6.5c0.6-0.6,0.7-1.5,0.2-2.2l-5.1-8.7
					c-1.3-2.2-3.6-3.7-6.2-3.9L366,338.5z"/>
				<path class="st120" d="M326.5,360.6l0.4,3.3l-0.4,4.8l0.6,4.6l0.9-4.8l1-7.1l5.4-5c-1.8-1.5,1.8-8.2,1.8-8.2l-1.9-4.9l-2,0.7
					l-4.1,5l-1.6,2l0.6,2.7L326.5,360.6z"/>
				
					<linearGradient id="SVGID_56_" gradientUnits="userSpaceOnUse" x1="13368.793" y1="357.6538" x2="13375.4551" y2="328.6139" gradientTransform="matrix(-1 0 0 1 13703.4473 0)">
					<stop  offset="5.586590e-03" style="stop-color:#E6E7E8"/>
					<stop  offset="0.505" style="stop-color:#DDE4E6"/>
					<stop  offset="1" style="stop-color:#D0DEE2"/>
				</linearGradient>
				<path class="st121" d="M339.5,337.4c0,0-0.9-2.2-11.2-1.3c-6.3,0.5-7.6,2-7.6,2l7.2,15.9l4.3-3.5c1.4-1.1,2.5-2.5,3.2-4.2
					L339.5,337.4z"/>
				<path class="st92" d="M382,449c-1.4-14.8-14.4-22.1-14-29.3c0.5-7.2-19.1,0.1-26-15.5c-7-15.6-18.4-3.1-21.3-16.8
					c-2.9-13.7-12-12.1-10-19c0,0,2.7,27.3-4.8,23.7c-7.4-3.6-4.8-10.1-4.8-10.1l-5.5,12L382,449z"/>
				<path class="st81" d="M365.4,433.7c-3-9.2-14.8-14.6-16.7-17.3c-1.9-2.7-19.6-4.6-23.6-12.2c-4-7.6-8.3-9.9-8.3-9.9
					s5.2,7.5,1.2,5.9c-4-1.5-7.7-4.1-7.2-5.2c0.5-1.1,0,3,0,3l-11.9-3l40.1,29.1L365.4,433.7z"/>
				<polygon class="st11" points="292.5,390.4 370.4,436.6 382,449 364.2,444.9 287.7,398.9 				"/>
				<polygon class="st122" points="382,449 290.3,394.3 287.7,398.9 364.2,444.9 				"/>
				<path class="st106" d="M294.1,382.3l-10.3,7.9c-0.2,0.2-0.4,0.4-0.5,0.7l-3.3,11.4c-0.2,0.7,0.1,1.4,0.8,1.7h0
					c0.5,0.2,1.2,0.2,1.6-0.2l8.3-7.6c0.1-0.1,0.3-0.3,0.3-0.4l5.5-11.6c0.3-0.6,0.1-1.4-0.5-1.8l-0.2-0.1
					C295.2,381.9,294.6,381.9,294.1,382.3z"/>
			</g>
			<path class="st81" d="M230.2,451.4l-10.6-2.4l-9.6,21c-0.7,1.5,1.1,2.9,2.4,1.9l15.6-11.8L230.2,451.4z"/>
			<path class="st81" d="M416.4,523.2l4.2,11.8l28.5-10.3c0.7-0.3,0.6-1.3-0.2-1.4l-23.8-2.2L416.4,523.2z"/>
			<path class="st117" d="M342,320.6c2.3-7.8,12.3-10.8,19.8-10.1c-3.3-1.9-7.3-2-10-1.4C346.8,310.2,342.6,313.4,342,320.6z"/>
			<path class="st116" d="M285.1,392.7c0,1.3,1.1,2.4,2.4,2.4c1.3,0,2.4-1.1,2.4-2.4c0-1.3-1.1-2.4-2.4-2.4
				C286.1,390.4,285.1,391.4,285.1,392.7z"/>
			<path class="st81" d="M293.9,380.9c0,1.6,1.3,2.9,2.9,2.9c1.6,0,2.9-1.3,2.9-2.9c0-1.6-1.3-2.9-2.9-2.9
				C295.2,378,293.9,379.3,293.9,380.9z M295.7,380.9c0-0.6,0.5-1.1,1.1-1.1c0.6,0,1.1,0.5,1.1,1.1c0,0.6-0.5,1.1-1.1,1.1
				C296.2,382.1,295.7,381.6,295.7,380.9z"/>
			<path class="st81" d="M276.7,405.4c0,1.6,1.3,2.9,2.9,2.9c1.6,0,2.9-1.3,2.9-2.9c0-1.6-1.3-2.9-2.9-2.9
				C278,402.5,276.7,403.8,276.7,405.4z M278.4,405.4c0-0.6,0.5-1.1,1.1-1.1c0.6,0,1.1,0.5,1.1,1.1c0,0.6-0.5,1.1-1.1,1.1
				C278.9,406.5,278.4,406,278.4,405.4z"/>
		</g>
		<g>
			<g>
				<g>
					<path class="st123" d="M376.4,319.9v47.8c0,12.2,5.3,23.8,14.6,31.7l29.6,25.5c2.7,2.3,6.7,2.3,9.4,0l29.6-25.5
						c9.2-8,14.6-19.5,14.6-31.7v-47.8c0-2.9-1.9-5.5-4.7-6.3l-42.4-12.7c-1.2-0.4-2.5-0.4-3.8,0l-42.4,12.7
						C378.3,314.5,376.4,317,376.4,319.9z M384.9,324.9c0-1.9,1.3-3.6,3.1-4.2l36.1-10.8c0.8-0.2,1.7-0.2,2.5,0l36.1,10.8
						c1.9,0.6,3.1,2.3,3.1,4.2v42.8c0,9.8-4.3,19-11.7,25.4l-25.9,22.3c-1.6,1.4-4.1,1.4-5.7,0l-25.9-22.3
						c-7.4-6.4-11.7-15.6-11.7-25.4V324.9z"/>
				</g>
				<path class="st123" d="M376.4,319.9v47.8c0,12.2,5.3,23.8,14.6,31.7l29.7,25.5c2.7,2.3,6.7,2.3,9.4,0l29.7-25.5
					c9.2-8,14.6-19.5,14.6-31.7v-47.8c0-2.9-1.9-5.5-4.7-6.3l-42.4-12.7c-1.2-0.4-2.5-0.4-3.8,0l-42.4,12.7
					C378.3,314.5,376.4,317,376.4,319.9z M384.9,324.9c0-1.9,1.3-3.6,3.1-4.2l36.1-10.8c0.8-0.2,1.7-0.2,2.5,0l36.1,10.8
					c1.9,0.6,3.1,2.3,3.1,4.2v42.8c0,9.8-4.3,19-11.7,25.4l-15.2,13.1c0.2,0,0.4-0.1,0.6-0.1l-6.9,11.6l-10.4,5.4l-25.7-29.9l0,0
					c-7.4-6.4-11.7-15.6-11.7-25.4V324.9z"/>
				<path class="st124" d="M377.6,316.1c0.6-0.4,1.2-0.8,2-1l42.4-12.7c1.2-0.4,2.5-0.4,3.8,0l42.4,12.7c2.8,0.8,4.7,3.4,4.7,6.3
					v47.8c0,10.8-4.2,21.1-11.5,28.8c8.3-7.9,13-18.8,13-30.3v-47.8c0-2.9-1.9-5.5-4.7-6.3l-42.4-12.7c-1.2-0.4-2.5-0.4-3.8,0
					l-42.4,12.7C379.7,314.1,378.5,314.9,377.6,316.1z"/>
				<path class="st124" d="M384.9,367.7v1.8c0,9.8,4.3,19,11.7,25.4l25.9,22.3c1.6,1.4,4.1,1.4,5.7,0l25.9-22.3
					c7.4-6.4,11.7-15.6,11.7-25.4v-1.8c0,9.8-4.3,19-11.7,25.4l-25.9,22.3c-1.6,1.4-4.1,1.4-5.7,0l-25.9-22.3
					C389.1,386.7,384.9,377.4,384.9,367.7z"/>
				
					<linearGradient id="SVGID_57_" gradientUnits="userSpaceOnUse" x1="13276.9951" y1="441.0052" x2="13278.9502" y2="276.0865" gradientTransform="matrix(-1 0 0 1 13703.4473 0)">
					<stop  offset="0.1089" style="stop-color:#C3F7F8"/>
					<stop  offset="1" style="stop-color:#CDFFFE"/>
				</linearGradient>
				<path class="st125" d="M454.1,393.1c7.4-6.4,11.7-15.6,11.7-25.4v-42.8c0-1.9-1.3-3.6-3.1-4.2l-36.1-10.8
					c-0.8-0.2-1.7-0.2-2.5,0L388,320.7c-1.9,0.6-3.1,2.3-3.1,4.2v42.8c0,9.8,4.3,19,11.7,25.4l25.9,22.3c1.6,1.4,4.1,1.4,5.7,0
					L454.1,393.1z"/>
				<path class="st65" d="M384.9,324.9v42.8c0,9.8,4.3,19,11.7,25.4l25.9,22.3c1.6,1.4,4.1,1.4,5.7,0l25.9-22.3
					c7.4-6.4,11.7-15.6,11.7-25.4v-42.8c0-1.9-1.3-3.6-3.1-4.2l-36.1-10.8c-0.8-0.2-1.7-0.2-2.5,0L388,320.7
					C386.2,321.2,384.9,322.9,384.9,324.9z"/>
				<path class="st126" d="M384.9,324.9V354c0.2,0.3-0.5-1,0.4-3.9c7.8-26.2,20.7-31.5,40.4-38.7l0.8-1.7c-0.8-0.2-1.5-0.2-2.3,0.1
					L388,320.7C386.2,321.2,384.9,322.9,384.9,324.9z"/>
				<path class="st126" d="M384.9,324.9v2.1c0-1.9,1.3-3.6,3.1-4.2l36.1-10.8c0.8-0.2,1.7-0.2,2.5,0l36.1,10.8
					c1.9,0.6,3.1,2.3,3.1,4.2v-2.1c0-1.9-1.3-3.6-3.1-4.2l-36.1-10.8c-0.8-0.2-1.7-0.2-2.5,0L388,320.7
					C386.2,321.2,384.9,322.9,384.9,324.9z"/>
			</g>
			<polygon class="st90" points="420,354.6 408.4,361 420,367.4 426.4,379 432.7,367.4 444.4,361 432.7,354.6 426.4,343 			"/>
		</g>
		<path class="st127" d="M386,394.5c1.3,1.5,2.7,3,4.2,4.3c0.3,0.2,0.5,0.5,0.7,0.7l11.2,9.7l63.4-96.7l-14.8-4.4L386,394.5z"/>
		<path class="st127" d="M381.8,388.4c0.8,1.4,1.6,2.7,2.6,4l61.1-85.9l-4.3-1.3L381.8,388.4z"/>
	</g>
	<path class="st92" d="M351.8,404.6c-4.9-7.9,1.5-9.3-2.8-21.3s-5.9-18.5-4.7-21.8c0,0,0.4,11.7,4.7,15.6c4.3,3.9,6.2,10.6,3.8,13.6
		c-2.4,3,8.2,17.2,8.2,17.2L351.8,404.6z"/>
	<g>
		<g>
			<rect x="463.9" y="337.8" class="st81" width="23.8" height="4.7"/>
		</g>
		<g>
			<rect x="400.6" y="337.8" class="st81" width="23.8" height="4.7"/>
		</g>
		<g>
			
				<rect x="432.2" y="369.4" transform="matrix(-1.836970e-16 1 -1 -1.836970e-16 815.9176 -72.3361)" class="st81" width="23.8" height="4.7"/>
		</g>
		<g>
			
				<rect x="432.2" y="306.2" transform="matrix(-1.836970e-16 1 -1 -1.836970e-16 752.6545 -135.5991)" class="st81" width="23.8" height="4.7"/>
		</g>
		<circle class="st81" cx="444.1" cy="340.2" r="8.9"/>
		<circle class="st128" cx="444.1" cy="340.2" r="32.5"/>
		<circle class="st129" cx="444.1" cy="340.2" r="19.8"/>
	</g>
	<g>
		<path class="st92" d="M228.9,312.2l17.9,7.9c-2,4.6-5.8,8.4-10.8,10.3c-10.1,3.9-21.4-1.1-25.3-11.2c-3.9-10.1,1.1-21.4,11.2-25.3
			c8.6-3.3,18.1-0.2,23.1,7.1L228.9,312.2z"/>
		<path class="st68" d="M230.5,300.9c0,1.1-0.9,1.9-1.9,1.9c-1.1,0-1.9-0.9-1.9-1.9c0-1.1,0.9-1.9,1.9-1.9
			C229.7,299,230.5,299.8,230.5,300.9z"/>
	</g>
</g>
</svg>
