<svg id="Layer_1" data-name="Layer 1" xmlns="http://www.w3.org/2000/svg" viewBox="0 0 499.64 499.64"><defs><style>.cls-1,.cls-2{fill:#fff;}.cls-2{stroke:#fff;stroke-linejoin:round;stroke-width:0.25px;}</style></defs><title>K-logo_1</title><path class="cls-1" d="M450.29,160H411.75a4.07,4.07,0,0,0-4.07,4.06v1.68H371.27a4.14,4.14,0,0,0-3.28,1.63l-12.8,17a4.07,4.07,0,0,0,3.27,6.52h49.22v1.68a4.07,4.07,0,0,0,4.07,4.06h38.54a4.07,4.07,0,0,0,4.08-4.06V164A4.07,4.07,0,0,0,450.29,160Z"/><path class="cls-1" d="M383.17,123.28a4.08,4.08,0,0,0-4.09-4.07H270.66a4.11,4.11,0,0,0-3.28,1.63L46.41,414.3a4.07,4.07,0,0,0,3.27,6.52H158.09a4.09,4.09,0,0,0,3.27-1.63L382.22,125.88A4,4,0,0,0,383.17,123.28Z"/><path class="cls-1" d="M296.64,262.21,192.43,400a4.07,4.07,0,0,0,3.27,6.52H347a32.3,32.3,0,0,0,26-51.71l-69.75-92.63a4.1,4.1,0,0,0-3.27-1.63h0A4.07,4.07,0,0,0,296.64,262.21Zm-73.5,134a7.6,7.6,0,1,1,7.62-7.59A7.61,7.61,0,0,1,223.14,396.24Zm41.46.56A22.79,22.79,0,1,1,287.48,374,22.83,22.83,0,0,1,264.6,396.8Zm82.92-45.58A22.79,22.79,0,1,1,324.64,374,22.83,22.83,0,0,1,347.52,351.22Zm-41.46,29.83a7.6,7.6,0,1,1-7.63,7.6A7.62,7.62,0,0,1,306.06,381.05Z"/><path class="cls-2" d="M187.52,414.71a6.24,6.24,0,0,0,.37,2,6.13,6.13,0,0,0,5.77,4.08h8.18a6.11,6.11,0,0,0,5.76-4.08h12.47a6.11,6.11,0,0,0,5.76,4.08h16a6.13,6.13,0,0,0,5.77-4.08h12.46a6.12,6.12,0,0,0,5.76,4.08h16a6.12,6.12,0,0,0,5.76-4.08H300a6.13,6.13,0,0,0,5.77,4.08h16a6.11,6.11,0,0,0,5.76-4.08H340a6.11,6.11,0,0,0,5.76,4.08h2.37a47.86,47.86,0,0,0,15.36-2.49,6.11,6.11,0,0,0,4.12-6.3,42.49,42.49,0,0,0,10.7-7.71,5.94,5.94,0,0,0,7.22-1.9,47.49,47.49,0,0,0,8.05-16.29,6.07,6.07,0,0,0-2.89-6.9,42.13,42.13,0,0,0-.37-13.12,6.1,6.1,0,0,0,2.49-7.09,47.59,47.59,0,0,0-7-13.19l-1.72-2.28a6.12,6.12,0,0,0-6.73-2.15l-7.48-9.93a6.06,6.06,0,0,0-.19-7l-9.59-12.74a6.12,6.12,0,0,0-6.73-2.15l-7.48-9.93a6.08,6.08,0,0,0-.18-7l-9.6-12.74a6.14,6.14,0,0,0-6.73-2.15l-7.54-10a6.07,6.07,0,0,0-.18-7l-4.91-6.52A6.14,6.14,0,0,0,310,252a6,6,0,0,0-1.86.92l-1.64,1.22,4,5.37,8,10.65,7.53,10,16.51,21.93,7.48,9.92,16.51,21.94,7.48,9.92,5.18,6.88a38.82,38.82,0,0,1,7.18,16.3,37.06,37.06,0,0,1,.32,11.47,38.72,38.72,0,0,1-11.46,23.18,37.46,37.46,0,0,1-9.28,6.7,39,39,0,0,1-17.86,4.3H187.52Z"/><ellipse class="cls-1" cx="347.52" cy="374.01" rx="7" ry="6.98"/><ellipse class="cls-1" cx="264.42" cy="374.01" rx="7" ry="6.98"/><path class="cls-1" d="M161.91,184.42V138.55c0-31.28-24.13-58.19-55.5-59.66a58.22,58.22,0,0,0-61.14,58V377.75a4.6,4.6,0,0,0,8.28,2.75l34.51-45.83L216.88,163.59a4.58,4.58,0,0,0-3.68-7.32l-40.23,0a4.59,4.59,0,0,0-4.6,4.58v23.57a3.25,3.25,0,1,1-6.46,0ZM136,134.53a4.32,4.32,0,0,1,8.64,0v27.76a4.32,4.32,0,0,1-8.64,0Zm-25.92,0a4.32,4.32,0,0,1,8.64,0v27.76a4.32,4.32,0,0,1-8.64,0Z"/></svg>