<?xml version="1.0" encoding="utf-8"?>
<!-- Generator: Adobe Illustrator 23.0.2, SVG Export Plug-In . SVG Version: 6.00 Build 0)  -->
<svg version="1.1" id="Layer_1" xmlns="http://www.w3.org/2000/svg" xmlns:xlink="http://www.w3.org/1999/xlink" x="0px" y="0px"
	 viewBox="0 0 500 500" style="enable-background:new 0 0 500 500;" xml:space="preserve">
<style type="text/css">
	.st0{fill:#333333;}
</style>
<g>
	<g>
		<path class="st0" d="M347.7,385.7c-6.3,0-11.5-5.1-11.5-11.5s5.2-11.5,11.5-11.5s11.5,5.2,11.5,11.5S354,385.7,347.7,385.7z
			 M347.7,371.7c-1.4,0-2.5,1.1-2.5,2.5c0,1.4,1.1,2.5,2.5,2.5s2.5-1.1,2.5-2.5C350.2,372.8,349.1,371.7,347.7,371.7z"/>
	</g>
	<g>
		<path class="st0" d="M264.6,385.7c-6.3,0-11.5-5.1-11.5-11.5s5.2-11.5,11.5-11.5s11.5,5.2,11.5,11.5S270.9,385.7,264.6,385.7z
			 M264.6,371.7c-1.4,0-2.5,1.1-2.5,2.5c0,1.4,1.1,2.5,2.5,2.5s2.5-1.1,2.5-2.5C267.1,372.8,266,371.7,264.6,371.7z"/>
	</g>
	<g>
		<g>
			<path class="st0" d="M450.5,160.1h-38.5c-2.2,0-4.1,1.8-4.1,4.1v1.7h-36.4c-1.3,0-2.5,0.6-3.3,1.6l-12.8,17
				c-1.3,1.8-1,4.4,0.8,5.7c0.7,0.5,1.6,0.8,2.5,0.8h49.2v1.7c0,2.2,1.8,4.1,4.1,4.1h38.5c2.2,0,4.1-1.8,4.1-4.1c0,0,0,0,0,0v-28.5
				C454.5,162,452.7,160.1,450.5,160.1L450.5,160.1z"/>
		</g>
		<g>
			<path class="st0" d="M383.4,123.5c0-2.3-1.8-4.1-4.1-4.1c0,0,0,0,0,0H270.8c-1.3,0-2.5,0.6-3.3,1.6l-221,293.5
				c-1.4,1.8-1,4.3,0.8,5.7c0.7,0.5,1.6,0.8,2.5,0.8h108.4c1.3,0,2.5-0.6,3.3-1.6l220.9-293.3C383,125.3,383.4,124.4,383.4,123.5z"
				/>
		</g>
		<g>
			<path class="st0" d="M296.8,262.4L192.6,400.2c-1.4,1.8-1,4.3,0.8,5.7c0.7,0.5,1.6,0.8,2.5,0.8h151.3
				c17.8,0.1,32.4-14.3,32.5-32.1c0-7.1-2.2-13.9-6.5-19.6l-69.8-92.6c-0.8-1-2-1.6-3.3-1.6l0,0
				C298.8,260.7,297.6,261.4,296.8,262.4z M223.3,396.4c-4.2,0-7.6-3.4-7.6-7.6c0-4.2,3.4-7.6,7.6-7.6c4.2,0,7.6,3.4,7.6,7.6
				C231,393,227.5,396.4,223.3,396.4C223.3,396.4,223.3,396.4,223.3,396.4L223.3,396.4z M264.8,396.9c-12.6,0-22.7-10.3-22.7-22.9
				c0-12.6,10.3-22.7,22.9-22.7c12.6,0,22.7,10.2,22.7,22.8C287.7,386.8,277.5,397,264.8,396.9C264.8,397,264.8,397,264.8,396.9
				L264.8,396.9z M347.7,351.4c12.6,0,22.7,10.3,22.7,22.9c0,12.6-10.3,22.7-22.9,22.7c-12.6,0-22.7-10.2-22.7-22.8
				C324.8,361.6,335.1,351.4,347.7,351.4z M306.2,381.2c4.2,0,7.6,3.4,7.6,7.6s-3.4,7.6-7.6,7.6c-4.2,0-7.6-3.4-7.6-7.6
				C298.6,384.6,302,381.2,306.2,381.2L306.2,381.2z"/>
		</g>
		<g>
			<path class="st0" d="M187.7,414.9c0,0.7,0.1,1.4,0.4,2c0.9,2.4,3.2,4.1,5.8,4.1h8.2c2.6,0,4.9-1.6,5.8-4.1h12.5
				c0.9,2.5,3.2,4.1,5.8,4.1h16c2.6,0,4.9-1.6,5.8-4.1h12.5c0.9,2.4,3.2,4.1,5.8,4.1h16c2.6,0,4.9-1.6,5.8-4.1h12.5
				c0.9,2.4,3.2,4.1,5.8,4.1h16c2.6,0,4.9-1.6,5.8-4.1h12.4c0.9,2.5,3.2,4.1,5.8,4.1h2.4c5.2,0,10.4-0.8,15.4-2.5
				c2.7-0.9,4.4-3.5,4.1-6.3c3.9-2,7.6-4.6,10.7-7.7c2.6,1.1,5.6,0.4,7.2-1.9c3.7-4.9,6.4-10.4,8.1-16.3c0.7-2.7-0.5-5.5-2.9-6.9
				c0.6-4.4,0.4-8.8-0.4-13.1c2.3-1.5,3.3-4.4,2.4-7.1c-1.6-4.7-4-9.2-7-13.2l-1.7-2.3c-1.6-2.1-4.3-2.9-6.7-2.1l-7.5-9.9
				c1.4-2.1,1.4-4.9-0.2-7l-9.6-12.7c-1.6-2.1-4.3-2.9-6.7-2.1l-7.5-9.9c1.4-2.1,1.4-4.9-0.2-7l-9.6-12.8c-1.6-2.1-4.3-2.9-6.7-2.1
				l-7.5-10c1.4-2.1,1.3-4.9-0.2-7l-4.9-6.5c-1.6-2.1-4.3-2.9-6.7-2.1c-0.7,0.2-1.3,0.5-1.9,0.9l-1.6,1.2l4,5.4l8,10.6l7.5,10
				l16.5,21.9l7.5,9.9l16.5,21.9l7.5,9.9l5.2,6.9c3.6,4.8,6.1,10.4,7.2,16.3c0.7,3.8,0.8,7.7,0.3,11.5c-1.1,8.8-5.1,17-11.5,23.2
				c-2.7,2.7-5.9,5-9.3,6.7c-5.5,2.8-11.6,4.3-17.9,4.3H187.7V414.9z"/>
		</g>
		<g>
			<path class="st0" d="M162.1,184.6v-45.9c0-31.3-24.1-58.2-55.5-59.7c-32.1-1.6-59.5,23.1-61.1,55.2c0,0.9-0.1,1.8-0.1,2.8v240.9
				c0,2.5,2.1,4.6,4.6,4.6c1.4,0,2.8-0.7,3.7-1.8l34.5-45.8l128.8-171.1c1.5-2,1.1-4.9-0.9-6.4c-0.8-0.6-1.8-0.9-2.8-0.9h-40.2
				c-2.5,0-4.6,2-4.6,4.6c0,0,0,0,0,0v23.6c0.2,1.8-1.1,3.4-2.9,3.5c-1.8,0.2-3.4-1.1-3.5-2.9C162.1,185,162.1,184.8,162.1,184.6
				L162.1,184.6z M136.2,134.7c0-2.4,1.9-4.3,4.3-4.3c2.4,0,4.3,1.9,4.3,4.3v27.8c0,2.4-1.9,4.3-4.3,4.3c-2.4,0-4.3-1.9-4.3-4.3
				V134.7z M110.2,134.7c0-2.4,1.9-4.3,4.3-4.3c2.4,0,4.3,1.9,4.3,4.3v27.8c0,2.4-1.9,4.3-4.3,4.3c-2.4,0-4.3-1.9-4.3-4.3V134.7z"/>
		</g>
	</g>
</g>
</svg>
