<?xml version="1.0" encoding="utf-8"?>
<!-- Generator: Adobe Illustrator 23.0.2, SVG Export Plug-In . SVG Version: 6.00 Build 0)  -->
<svg version="1.1" id="Layer_1" xmlns="http://www.w3.org/2000/svg" xmlns:xlink="http://www.w3.org/1999/xlink" x="0px" y="0px"
	 viewBox="0 0 1956.5 8188.8" style="enable-background:new 0 0 1956.5 8188.8;" xml:space="preserve">
<style type="text/css">
	.st0{fill:url(#SVGID_1_);}
	.st1{fill:url(#SVGID_2_);}
	.st2{fill:url(#SVGID_3_);}
	.st3{fill:url(#SVGID_4_);}
	.st4{fill:url(#SVGID_5_);}
	.st5{fill:url(#SVGID_6_);}
</style>
<g>
	<linearGradient id="SVGID_1_" gradientUnits="userSpaceOnUse" x1="1958.8778" y1="1060.99" x2="457.1871" y2="-440.7007">
		<stop  offset="0.1344" style="stop-color:#9FF66A"/>
		<stop  offset="0.8944" style="stop-color:#5390F2"/>
	</linearGradient>
	<path class="st0" d="M1202.7,919.6c234.6,174.9,532.9,174.3,752.9,144.7c0.3-355.6,0.7-711.1,1-1066.7c-652-0.3-1304-0.7-1956-1
		C0.2,52-0.1,107.4-0.5,162.7c436,16.9,675.6,157.3,815,287.3C997.7,620.7,1012.7,778,1202.7,919.6z"/>
	<linearGradient id="SVGID_2_" gradientUnits="userSpaceOnUse" x1="1958.5931" y1="3204.7463" x2="508.5491" y2="1754.7023">
		<stop  offset="0.1344" style="stop-color:#9FF66A"/>
		<stop  offset="0.8944" style="stop-color:#5390F2"/>
	</linearGradient>
	<path class="st1" d="M1669.7,2128.4c-310.1,150.5-639.2-234.1-1133.9-156.9c-245,38.2-426.8,173.6-535.9,273.1
		c0,173.9,0,347.7,0,521.6c128.1,167.7,257.7,240.4,349.4,276.1c441.3,171.3,817.1-202.9,1294.8-31.6
		c146.3,52.4,249.9,137.3,311.7,196.6c0-512.8,0-1025.6,0-1538.4C1886.5,1973.7,1763.3,2083,1669.7,2128.4z"/>
	<linearGradient id="SVGID_3_" gradientUnits="userSpaceOnUse" x1="1090.4021" y1="4740.3452" x2="178.2917" y2="3828.2346">
		<stop  offset="0.1344" style="stop-color:#9FF66A"/>
		<stop  offset="0.8944" style="stop-color:#5390F2"/>
	</linearGradient>
	<path class="st2" d="M717.2,3852.1c-93.8-36.5-412.9-160.9-592.9,18.4c-137,136.4-147.9,403.3-35.7,508.4
		c101.1,94.6,224.1-15.4,407.5,66.2c248.3,110.5,233.6,405.8,383.1,419.7c141.5,13.1,335-234.6,329.1-473.7
		C1199.5,4040.1,765.1,3870.8,717.2,3852.1z"/>
	<linearGradient id="SVGID_4_" gradientUnits="userSpaceOnUse" x1="1704.6635" y1="5928.4023" x2="1245.6119" y2="5469.3506">
		<stop  offset="0.1344" style="stop-color:#9FF66A"/>
		<stop  offset="0.8944" style="stop-color:#5390F2"/>
	</linearGradient>
	<path class="st3" d="M903.6,5816.2c-7.2,101.7,426.3,340.8,724.4,168.1c263.5-152.7,314.4-565.7,227.2-622.4
		c-61.1-39.7-160.4,114.3-491,268.9C1064.6,5771,907.9,5756.1,903.6,5816.2z"/>
	<linearGradient id="SVGID_5_" gradientUnits="userSpaceOnUse" x1="252.5895" y1="1563.3395" x2="-252.2417" y2="1058.5083">
		<stop  offset="0.1344" style="stop-color:#9FF66A"/>
		<stop  offset="0.8944" style="stop-color:#5390F2"/>
	</linearGradient>
	<path class="st4" d="M349.4,1140.2C262.2,952.3,25.7,894.1-132.4,962.9c-232.9,101.3-294.9,477.5-127.3,636.7
		c109.2,103.8,301.7,102.1,436,22.4C327.2,1532.5,435.7,1325.8,349.4,1140.2z"/>
	<linearGradient id="SVGID_6_" gradientUnits="userSpaceOnUse" x1="1836.0216" y1="7970.8145" x2="-337.279" y2="5797.5142">
		<stop  offset="0.1344" style="stop-color:#9FF66A"/>
		<stop  offset="0.8944" style="stop-color:#5390F2"/>
	</linearGradient>
	<path class="st5" d="M1338.6,6365.5c-338-96.9-562.2,112.9-835.4,7.1C328.7,6304.9,110,6099.1,0,5432.3
		c0,648.2,0,1296.5,0.1,1944.8c391.4-22.4,643.9,73.7,799.7,162c346.3,196.3,457.8,491.4,738.6,502.2
		c178.9,6.9,327.5-105.6,417.7-190.5c0-292.7,0-585.5,0-878.2C1847.8,6753,1656.2,6456.4,1338.6,6365.5z"/>
</g>
</svg>
