<svg xmlns="http://www.w3.org/2000/svg" viewBox="0 0 123.8 123.8"><defs><style>.cls-1{fill:none;stroke:#fff;stroke-linecap:square;stroke-miterlimit:10;stroke-width:2.63px;}</style></defs><title>Artboard 15</title><g id="Icons"><g id="_12" data-name="12"><polygon class="cls-1" points="53.63 31.2 53.63 39.09 48.78 39.09 48.78 31.2 41.5 31.2 41.5 39.09 36.64 39.09 36.64 31.2 28.51 31.2 30.36 46.99 59.91 46.99 61.77 31.2 53.63 31.2"/><polyline class="cls-1" points="53.94 51.56 53.94 78.86 36.33 78.86 36.33 47.53"/><polygon class="cls-1" points="53.94 78.78 36.33 78.78 32.4 83.73 32.4 92.61 57.88 92.61 57.88 83.73 53.94 78.78"/><line class="cls-1" x1="33.9" y1="83.73" x2="51.35" y2="83.73"/><polygon class="cls-1" points="90.04 77.85 74.61 77.85 70.05 83.13 70.05 92.61 94.59 92.61 94.59 83.13 90.04 77.85"/><line class="cls-1" x1="71.79" y1="83.13" x2="87.03" y2="83.13"/><path class="cls-1" d="M74.24,77.85,62.57,54.22,72.32,41h4.14l6.11-5.5v5.67s8.26,0,12.73,9.75l-4,5.12s-6.61-3.67-12.39-.92l15.2,14.31-1.78,3.49"/></g></g></svg>