<svg xmlns="http://www.w3.org/2000/svg" viewBox="0 0 123.8 123.8"><defs><style>.cls-1,.cls-2{fill:none;stroke:#fff;stroke-miterlimit:10;stroke-width:2.63px;}.cls-1{stroke-linecap:square;}</style></defs><title>Artboard 16</title><g id="Icons"><g id="_13" data-name="13"><line class="cls-1" x1="64.04" y1="66.89" x2="57.1" y2="66.89"/><line class="cls-1" x1="49.73" y1="42.61" x2="73.89" y2="42.61"/><path class="cls-1" d="M32.83,38.28V35A2.19,2.19,0,0,1,35,32.81h7A2.19,2.19,0,0,1,44.25,35"/><path class="cls-1" d="M79.56,38.27V35a2.19,2.19,0,0,1,2.19-2.19h7A2.19,2.19,0,0,1,91,35"/><path class="cls-2" d="M95.22,66.26l3.71,15.11a7.76,7.76,0,0,1-14.25,5.75L76.45,73"/><path class="cls-2" d="M29.68,61.81l-4.8,19.56a7.76,7.76,0,0,0,14.25,5.75l6.4-11"/><path class="cls-2" d="M48.62,60.64A13.56,13.56,0,0,0,38.54,38a13.34,13.34,0,0,0-5.71,1.27,13.55,13.55,0,0,0,5.71,25.84,13.31,13.31,0,0,0,4.53-.78"/><path class="cls-2" d="M75.19,60.64a13.62,13.62,0,1,1,7.21,4.17,13.15,13.15,0,0,1-1.66-.47"/><circle class="cls-1" cx="48.79" cy="66.89" r="6.26"/><circle class="cls-1" cx="75.02" cy="66.89" r="6.26"/><line class="cls-1" x1="43.06" y1="51.57" x2="34.02" y2="51.57"/><line class="cls-1" x1="38.54" y1="56.09" x2="38.54" y2="47.05"/><line class="cls-1" x1="82.12" y1="51.57" x2="80.74" y2="51.57"/><line class="cls-1" x1="89.79" y1="51.57" x2="88.41" y2="51.57"/><line class="cls-1" x1="85.27" y1="48.42" x2="85.27" y2="47.05"/><line class="cls-1" x1="85.27" y1="56.09" x2="85.27" y2="54.72"/><line class="cls-1" x1="57.1" y1="57.03" x2="58.95" y2="57.03"/><line class="cls-1" x1="64.85" y1="57.03" x2="66.7" y2="57.03"/></g></g></svg>