<svg xmlns="http://www.w3.org/2000/svg" viewBox="0 0 123.8 123.8"><defs><style>.cls-1{fill:none;stroke:#fff;stroke-linecap:square;stroke-miterlimit:10;stroke-width:2.63px;}</style></defs><title>Artboard 19</title><g id="Icons"><g id="_16" data-name="16"><path class="cls-1" d="M74.76,59.72c2-1.95,5.35-5.65,5.35-8.65a3.68,3.68,0,0,0-3.52-3.83,3.36,3.36,0,0,0-2.26.88"/><rect class="cls-1" x="37.38" y="44.94" width="32.73" height="50.22" rx="2.8"/><path class="cls-1" d="M57,65.34c-.21,0,.49-1.56.49-2.6a3.79,3.79,0,1,0-7.57,0c0,1,.7,2.6.49,2.6a3.79,3.79,0,1,0,0,7.57c1.42,0,2-1.13,3.3-1.13s1.87,1.13,3.29,1.13a3.79,3.79,0,1,0,0-7.57Z"/><line class="cls-1" x1="53.75" y1="72.91" x2="53.75" y2="76.21"/><line class="cls-1" x1="50.36" y1="81.27" x2="57.14" y2="81.27"/><line class="cls-1" x1="43.25" y1="50.45" x2="43.71" y2="50.45"/><line class="cls-1" x1="63.78" y1="50.45" x2="64.24" y2="50.45"/><line class="cls-1" x1="43.25" y1="89.63" x2="43.71" y2="89.63"/><line class="cls-1" x1="63.78" y1="89.63" x2="64.24" y2="89.63"/><path class="cls-1" d="M53.69,39.66V31.6a3,3,0,0,1,3-3H83.46a3,3,0,0,1,3,3V75.9a3,3,0,0,1-3,3H75.39"/><line class="cls-1" x1="59.56" y1="34.15" x2="60.02" y2="34.15"/><line class="cls-1" x1="80.09" y1="34.15" x2="80.55" y2="34.15"/><line class="cls-1" x1="80.09" y1="73.32" x2="80.55" y2="73.32"/></g></g></svg>