<svg xmlns="http://www.w3.org/2000/svg" viewBox="0 0 123.8 123.8"><defs><style>.cls-1{fill:none;stroke:#fff;stroke-linecap:square;stroke-miterlimit:10;stroke-width:2.63px;}</style></defs><title>Artboard 22</title><g id="Icons"><g id="_19" data-name="19"><g id="_5" data-name="5"><path class="cls-1" d="M93.36,55.26H31.7a.25.25,0,0,1-.21-.4l8.17-12.34H85.4l8.17,12.34A.26.26,0,0,1,93.36,55.26Z"/><path class="cls-1" d="M31.32,56,62.53,93.13,93.73,56a.42.42,0,0,0-.32-.69H31.64A.42.42,0,0,0,31.32,56Z"/><line class="cls-1" x1="63.21" y1="90.59" x2="73.34" y2="59.6"/><line class="cls-1" x1="50.29" y1="55.26" x2="61.86" y2="90.62"/><path class="cls-1" d="M65.79,46.51l7.94,7.75a1.38,1.38,0,0,0,2-.07L85.4,43.33"/><polyline class="cls-1" points="42.58 46.61 50.29 55.26 62.53 43.33"/></g><line class="cls-1" x1="29.61" y1="44.42" x2="27.62" y2="43"/><line class="cls-1" x1="38.41" y1="36.17" x2="37.33" y2="33.97"/><line class="cls-1" x1="50.13" y1="33.57" x2="49.9" y2="31.13"/><line class="cls-1" x1="61.87" y1="33.12" x2="61.9" y2="30.67"/><line class="cls-1" x1="94.19" y1="44.42" x2="96.19" y2="43"/><line class="cls-1" x1="85.39" y1="36.17" x2="86.47" y2="33.97"/><line class="cls-1" x1="73.67" y1="33.57" x2="73.9" y2="31.13"/></g></g></svg>