<svg xmlns="http://www.w3.org/2000/svg" xmlns:xlink="http://www.w3.org/1999/xlink" viewBox="0 0 123.8 123.8"><defs><style>.cls-1{fill:url(#linear-gradient);}.cls-2,.cls-3{fill:none;stroke:#fff;stroke-miterlimit:10;stroke-width:2.63px;}.cls-2{stroke-linecap:square;}</style><linearGradient id="linear-gradient" x1="123.8" y1="123.8" x2="0.8" y2="0.8" gradientUnits="userSpaceOnUse"><stop offset="0.17" stop-color="#9ff66a"/><stop offset="0.19" stop-color="#9df36e"/><stop offset="0.44" stop-color="#7dc9a6"/><stop offset="0.66" stop-color="#66aacf"/><stop offset="0.83" stop-color="#5897e9"/><stop offset="0.94" stop-color="#5390f2"/></linearGradient></defs><title>Artboard 20</title><g id="Icons"><rect class="cls-1" width="123.8" height="123.8"/><g id="_17" data-name="17"><polyline class="cls-2" points="100.8 29.7 100.8 83.53 23 83.53 23 29.7 100.8 29.7"/><polyline class="cls-3" points="72.11 87.23 72.11 94.11 51.69 94.11 51.69 83.53 72.11 83.53"/><line class="cls-3" x1="44.38" y1="94.11" x2="79.43" y2="94.11"/><line class="cls-3" x1="23" y1="74.53" x2="96.37" y2="74.53"/><polygon class="cls-3" points="54.34 42.39 49.34 51.06 59.35 51.06 54.34 42.39"/><rect class="cls-3" x="49.84" y="56.47" width="8.8" height="8.81"/><path class="cls-3" d="M69.81,65.53h0a4.66,4.66,0,0,1-4.65-4.66h0a4.65,4.65,0,0,1,4.65-4.65h0a4.66,4.66,0,0,1,4.66,4.65h0A4.66,4.66,0,0,1,69.81,65.53Z"/><line class="cls-3" x1="65.16" y1="41.75" x2="74.47" y2="51.06"/><line class="cls-3" x1="74.47" y1="41.75" x2="65.16" y2="51.06"/></g></g></svg>