<svg xmlns="http://www.w3.org/2000/svg" viewBox="0 0 123.8 123.8"><defs><style>.cls-1{fill:none;stroke:#fff;stroke-linecap:square;stroke-miterlimit:10;stroke-width:2.63px;}</style></defs><title>Artboard 21</title><g id="Icons"><g id="_18" data-name="18"><polyline class="cls-1" points="85.23 55.52 94.64 44.56 79.11 46.4 81.52 31.81 69.26 40.92 62.48 27.19 55.24 41.37 43.02 31.81 45.3 47.51 29.16 45.19 41.22 56.88"/><path class="cls-1" d="M49.73,51.42h3a2.52,2.52,0,0,1,2.52,2.52v6a0,0,0,0,1,0,0h-8a0,0,0,0,1,0,0v-6A2.52,2.52,0,0,1,49.73,51.42Z"/><path class="cls-1" d="M57.72,50.22h3a2.52,2.52,0,0,1,2.52,2.52v7.19a0,0,0,0,1,0,0h-8a0,0,0,0,1,0,0V52.73A2.52,2.52,0,0,1,57.72,50.22Z"/><path class="cls-1" d="M65.71,51.42h3a2.52,2.52,0,0,1,2.52,2.52v6a0,0,0,0,1,0,0h-8a0,0,0,0,1,0,0v-6A2.52,2.52,0,0,1,65.71,51.42Z"/><path class="cls-1" d="M73.71,52.63h3a2.52,2.52,0,0,1,2.52,2.52v6a0,0,0,0,1,0,0h-6a2,2,0,0,1-2-2v-4A2.52,2.52,0,0,1,73.71,52.63Z"/><path class="cls-1" d="M51.89,96.62l-.55-8.09a5,5,0,0,0-1.57-3.32l-7.45-7a6.87,6.87,0,0,1-1.12-8.63l6-9.67H62a3.31,3.31,0,0,1,3.31,3.31V65A3.31,3.31,0,0,1,62,68.28H53.52"/><path class="cls-1" d="M59.28,72.7c2.32,1.93,4.73,4.44,5.24,6.73"/><path class="cls-1" d="M79.18,66.62V77.36a12.58,12.58,0,0,1-2.71,7.81l-.37.47A5,5,0,0,0,75,88.25l-.83,8.37"/></g></g></svg>