<svg xmlns="http://www.w3.org/2000/svg" viewBox="0 0 123.8 123.8"><defs><style>.cls-1{fill:none;stroke:#fff;stroke-linecap:square;stroke-miterlimit:10;stroke-width:2.63px;}</style></defs><title>Artboard 7</title><g id="Icons"><g id="_4" data-name="4"><path class="cls-1" d="M54.88,71.45l-.83.84a4.94,4.94,0,0,1-6.59.46,4.8,4.8,0,0,1-.35-7.1l1-1L42.74,59.3,25.22,76.81,42.74,94.33l7.07-7.07.91.91a6,6,0,0,1,1.72,3,3.89,3.89,0,0,0,1.06,2,3.94,3.94,0,0,0,6-5,3.86,3.86,0,0,0-2.38-1.59,6.19,6.19,0,0,1-3-1.73l-.91-.91,7.07-7.08-1.91-1.9"/><path class="cls-1" d="M94.79,66.28l3.79,3.78-5.36,5.37-.84-.84a4.94,4.94,0,0,0-6.58-.47,4.8,4.8,0,0,0-.35,7.11l1,1-5.36,5.37L63.56,70.06,81.07,52.55l7.07,7.07.91-.91a6,6,0,0,0,1.72-3,3.93,3.93,0,1,1,7.08,3,3.88,3.88,0,0,1-2.38,1.59,6.23,6.23,0,0,0-3,1.73l-.91.91"/><path class="cls-1" d="M40.49,47l5.36,5.36.84-.84a4.93,4.93,0,0,1,6.58-.46,4.8,4.8,0,0,1,.35,7.1c-.34.35-1,1-1,1L58,64.5,75.51,47,58,29.48l-7.07,7.07L50,35.63a5.9,5.9,0,0,1-1.71-3,3.89,3.89,0,0,0-1.06-2,3.94,3.94,0,1,0-3.64,6.62,6.11,6.11,0,0,1,3,1.72l.92.92L44.27,43.2"/></g></g></svg>