<svg xmlns="http://www.w3.org/2000/svg" xmlns:xlink="http://www.w3.org/1999/xlink" viewBox="0 0 123.8 123.8"><defs><style>.cls-1{fill:url(#linear-gradient);}.cls-2{fill:none;stroke:#fff;stroke-linecap:square;stroke-miterlimit:10;stroke-width:2.63px;}</style><linearGradient id="linear-gradient" x1="123.8" y1="123.8" x2="0.8" y2="0.8" gradientUnits="userSpaceOnUse"><stop offset="0.17" stop-color="#9ff66a"/><stop offset="0.19" stop-color="#9df36e"/><stop offset="0.44" stop-color="#7dc9a6"/><stop offset="0.66" stop-color="#66aacf"/><stop offset="0.83" stop-color="#5897e9"/><stop offset="0.94" stop-color="#5390f2"/></linearGradient></defs><title>Artboard 5</title><g id="Icons"><rect class="cls-1" width="123.8" height="123.8"/><g id="_2" data-name="2"><circle class="cls-2" cx="61.9" cy="61.9" r="32.8" transform="translate(-25.64 61.9) rotate(-45)"/><polygon class="cls-2" points="49.16 53.23 65.65 47.88 75.84 61.9 65.65 75.93 49.16 70.57 49.16 53.23"/><line class="cls-2" x1="67.57" y1="43.43" x2="69.32" y2="39.4"/><line class="cls-2" x1="67.12" y1="79.29" x2="65.65" y2="75.93"/><line class="cls-2" x1="49.16" y1="53.23" x2="42.44" y2="48.61"/><line class="cls-2" x1="43.06" y1="74.71" x2="49.16" y2="70.57"/><line class="cls-2" x1="75.84" y1="61.9" x2="85.17" y2="61.97"/><polyline class="cls-2" points="42.63 40.61 42.44 48.61 30.81 53.28"/><polyline class="cls-2" points="81.09 35.9 69.32 39.4 61.37 29.71"/><polyline class="cls-2" points="89.13 68 85.17 61.97 92.16 51.57"/><polyline class="cls-2" points="63 93.1 69.32 83.24 81.49 86.23"/><polyline class="cls-2" points="31.58 71.3 43.27 75.07 43.97 83.24"/></g></g></svg>