<svg xmlns="http://www.w3.org/2000/svg" xmlns:xlink="http://www.w3.org/1999/xlink" viewBox="0 0 123.8 123.8"><defs><style>.cls-1{fill:url(#linear-gradient);}.cls-2{fill:none;stroke-linecap:square;stroke-width:2.63px;}.cls-2,.cls-3{stroke:#fff;stroke-miterlimit:10;}.cls-3{fill:#484751;}</style><linearGradient id="linear-gradient" x1="123.8" y1="123.8" x2="0.8" y2="0.8" gradientUnits="userSpaceOnUse"><stop offset="0.17" stop-color="#9ff66a"/><stop offset="0.19" stop-color="#9df36e"/><stop offset="0.44" stop-color="#7dc9a6"/><stop offset="0.66" stop-color="#66aacf"/><stop offset="0.83" stop-color="#5897e9"/><stop offset="0.94" stop-color="#5390f2"/></linearGradient></defs><title>Artboard 23</title><g id="Icons"><rect class="cls-1" width="123.8" height="123.8"/><g id="_20" data-name="20"><path class="cls-2" d="M31.43,58.48l5.35-1.25L43.07,44a4.86,4.86,0,0,1,4.38-2.77H74a4.86,4.86,0,0,1,4,2.06l9.81,14,13.37,2.9a7.35,7.35,0,0,1,5.78,7.18v4.53a3.46,3.46,0,0,1-3.47,3.46H98.05"/><line class="cls-2" x1="36.38" y1="75.3" x2="30.31" y2="75.3"/><polyline class="cls-2" points="56.92 75.31 77.29 75.31 77.29 75.31"/><circle class="cls-2" cx="44.55" cy="75.3" r="7.29" transform="translate(-38.97 101.36) rotate(-76.72)"/><circle class="cls-2" cx="85.66" cy="75.3" r="7.29" transform="translate(-7.31 141.37) rotate(-76.72)"/><polyline class="cls-2" points="33.49 53.54 33.49 52.05 22.34 49.58"/><line class="cls-2" x1="26.84" y1="70.49" x2="21.14" y2="70.49"/><line class="cls-2" x1="26.84" y1="65.42" x2="16.89" y2="65.42"/><line class="cls-2" x1="26.84" y1="60.34" x2="23.2" y2="60.34"/><line class="cls-2" x1="106.91" y1="67.31" x2="103.38" y2="67.31"/><polyline class="cls-2" points="80.63 56.75 75 56.75 67.3 56.75 67.3 51.56 67.3 45.49"/><line class="cls-2" x1="69.98" y1="56.75" x2="43.12" y2="56.75"/><path class="cls-3" d="M46.47,75.3a1.92,1.92,0,1,1-1.92-1.91A1.92,1.92,0,0,1,46.47,75.3Z"/><path class="cls-3" d="M87.58,75.3a1.92,1.92,0,1,1-1.92-1.91A1.92,1.92,0,0,1,87.58,75.3Z"/></g></g></svg>