<?xml version="1.0" encoding="utf-8"?>
<!-- Generator: Adobe Illustrator 23.0.2, SVG Export Plug-In . SVG Version: 6.00 Build 0)  -->
<svg version="1.1" id="Layer_1" xmlns="http://www.w3.org/2000/svg" xmlns:xlink="http://www.w3.org/1999/xlink" x="0px" y="0px"
	 viewBox="0 0 123.8 123.8" style="enable-background:new 0 0 123.8 123.8;" xml:space="preserve">
<style type="text/css">
	.st0{fill:none;stroke:#FFFFFF;stroke-width:2.63;stroke-linecap:square;stroke-miterlimit:10;}
	.st1{fill:#FFFFFF;stroke:#FFFFFF;stroke-miterlimit:10;}
</style>
<title>Artboard 13</title>
<g id="Icons">
	<g id="_10">
		<path class="st0" d="M94.3,61.9c0,18-14.5,32.5-32.5,32.6S29.4,80,29.3,62c0-18,14.5-32.5,32.5-32.6c8.3,0,16.3,3.2,22.4,8.9
			c0.2,0.2,0.4,0.4,0.6,0.6l-5.6,5.6l-5.6,5.6l-5.6,5.6c-3.4-3.4-8.9-3.4-12.3,0s-3.4,8.9,0,12.3s8.9,3.4,12.3,0
			c1.6-1.6,2.5-3.8,2.5-6.1c0-0.1,0-0.2,0-0.3"/>
		<path class="st0" d="M88.6,43.5c2.5,3.6,4.2,7.6,5.1,11.8"/>
		<path class="st0" d="M82.9,49.2c7,11.6,3.3,26.7-8.4,33.7s-26.7,3.3-33.7-8.4s-3.3-26.7,8.4-33.7c9.7-5.8,22.1-4.3,30.1,3.7
			l-5.6,5.6l-5.6,5.6c-3.4-3.4-8.9-3.4-12.3,0s-3.4,8.9,0,12.3s8.9,3.4,12.3,0c1.6-1.6,2.5-3.8,2.5-6.1c0-0.1,0-0.2,0-0.3"/>
		<path class="st0" d="M77.1,55.1c1,2.1,1.5,4.5,1.5,6.8c0,9.2-7.4,16.7-16.6,16.7S45.2,71.2,45.2,62s7.4-16.7,16.6-16.7
			c4.4,0,8.7,1.7,11.8,4.9l-5.6,5.6c-3.4-3.4-8.9-3.4-12.3,0s-3.4,8.9,0,12.3s8.9,3.4,12.3,0c1.6-1.6,2.5-3.8,2.5-6.1
			c0-0.1,0-0.2,0-0.3"/>
		<polyline class="st0" points="89.4,34.4 84.8,39 79.2,44.5 73.6,50.1 68.1,55.7 63.5,60.3 61.9,61.9 		"/>
		<polyline class="st0" points="93.7,25.8 93.7,30.1 97.9,30.1 		"/>
		<polyline class="st0" points="89.4,30.2 89.4,34.4 93.6,34.4 		"/>
		<path class="st1" d="M64.2,61.9c0,1.3-1,2.3-2.3,2.3s-2.3-1-2.3-2.3c0-1.3,1-2.3,2.3-2.3c0.6,0,1.2,0.2,1.6,0.7
			C63.9,60.7,64.2,61.3,64.2,61.9z"/>
		<line class="st0" x1="61.9" y1="23.8" x2="61.9" y2="21.9"/>
		<line class="st0" x1="61.9" y1="101.9" x2="61.9" y2="100"/>
		<line class="st0" x1="100" y1="61.9" x2="101.9" y2="61.9"/>
		<line class="st0" x1="21.9" y1="61.9" x2="23.8" y2="61.9"/>
	</g>
</g>
</svg>
