<svg xmlns="http://www.w3.org/2000/svg" xmlns:xlink="http://www.w3.org/1999/xlink" viewBox="0 0 123.8 123.8"><defs><style>.cls-1{fill:url(#linear-gradient);}.cls-2{fill:none;stroke-linecap:square;stroke-width:2.63px;}.cls-2,.cls-3{stroke:#fff;stroke-miterlimit:10;}.cls-3{fill:#484751;}</style><linearGradient id="linear-gradient" x1="123.8" y1="123.8" x2="0.8" y2="0.8" gradientUnits="userSpaceOnUse"><stop offset="0.17" stop-color="#9ff66a"/><stop offset="0.19" stop-color="#9df36e"/><stop offset="0.44" stop-color="#7dc9a6"/><stop offset="0.66" stop-color="#66aacf"/><stop offset="0.83" stop-color="#5897e9"/><stop offset="0.94" stop-color="#5390f2"/></linearGradient></defs><title>Artboard 13</title><g id="Icons"><rect class="cls-1" width="123.8" height="123.8"/><g id="_10" data-name="10"><path class="cls-2" d="M94.35,61.9A32.51,32.51,0,1,1,84.17,38.33c.22.2.43.41.64.63l-5.58,5.59-5.59,5.59-5.58,5.6a8.7,8.7,0,1,0,2.56,6.16c0-.12,0-.23,0-.35"/><path class="cls-2" d="M88.63,43.53a32.15,32.15,0,0,1,5.05,11.8"/><path class="cls-2" d="M82.91,49.25a24.58,24.58,0,1,1-3.68-4.7l-5.59,5.59-5.58,5.6a8.7,8.7,0,1,0,2.56,6.16c0-.12,0-.23,0-.35"/><path class="cls-2" d="M77.07,55.1a16.43,16.43,0,0,1,1.46,6.8,16.66,16.66,0,1,1-4.89-11.76l-5.58,5.6a8.7,8.7,0,1,0,2.56,6.16c0-.12,0-.23,0-.35"/><polyline class="cls-2" points="89.36 34.41 84.81 38.96 79.23 44.55 73.64 50.14 68.06 55.74 63.5 60.29 61.9 61.9"/><polyline class="cls-2" points="93.68 25.84 93.68 30.1 97.94 30.1"/><polyline class="cls-2" points="89.36 30.16 89.36 34.42 93.63 34.42"/><path class="cls-3" d="M64.18,61.9a2.27,2.27,0,1,1-2.27-2.27,2.24,2.24,0,0,1,1.6.66A2.28,2.28,0,0,1,64.18,61.9Z"/><line class="cls-2" x1="61.9" y1="23.8" x2="61.9" y2="21.93"/><line class="cls-2" x1="61.9" y1="101.87" x2="61.9" y2="100"/><line class="cls-2" x1="100" y1="61.9" x2="101.87" y2="61.9"/><line class="cls-2" x1="21.93" y1="61.9" x2="23.8" y2="61.9"/></g></g></svg>