<svg xmlns="http://www.w3.org/2000/svg" xmlns:xlink="http://www.w3.org/1999/xlink" viewBox="0 0 123.8 123.8"><defs><style>.cls-1{fill:url(#linear-gradient);}.cls-2{fill:none;stroke:#fff;stroke-linecap:square;stroke-miterlimit:10;stroke-width:2.63px;}</style><linearGradient id="linear-gradient" x1="123.8" y1="123.8" x2="0.8" y2="0.8" gradientUnits="userSpaceOnUse"><stop offset="0.17" stop-color="#9ff66a"/><stop offset="0.19" stop-color="#9df36e"/><stop offset="0.44" stop-color="#7dc9a6"/><stop offset="0.66" stop-color="#66aacf"/><stop offset="0.83" stop-color="#5897e9"/><stop offset="0.94" stop-color="#5390f2"/></linearGradient></defs><title>Artboard 18</title><g id="Icons"><rect class="cls-1" width="123.8" height="123.8"/><g id="_15" data-name="15"><path class="cls-2" d="M56.47,65.55c0,2,2.43,3.65,5.43,3.65s5.44-.82,5.44-3.65S64.9,61.9,61.9,61.9h0c-3,0-5.43-1-5.43-3.64s2.43-3.65,5.43-3.65,5.44,1.63,5.44,3.65"/><line class="cls-2" x1="61.9" y1="54.61" x2="61.9" y2="51.34"/><line class="cls-2" x1="61.9" y1="72.67" x2="61.9" y2="69.4"/><path class="cls-2" d="M84.49,69.24a23.78,23.78,0,1,1,1.15-7.34c0,.49,0,1,0,1.44"/><circle class="cls-2" cx="61.9" cy="61.9" r="34.42" transform="translate(-9.8 112.13) rotate(-80.01)"/><line class="cls-2" x1="61.9" y1="38.16" x2="61.9" y2="27.48"/><line class="cls-2" x1="61.9" y1="91.82" x2="61.9" y2="85.64"/><line class="cls-2" x1="47.95" y1="42.7" x2="44.65" y2="38.16"/><line class="cls-2" x1="82.13" y1="89.74" x2="76.86" y2="82.49"/><line class="cls-2" x1="39.32" y1="54.57" x2="29.17" y2="51.26"/><line class="cls-2" x1="94.63" y1="72.54" x2="84.99" y2="69.4"/><line class="cls-2" x1="34.61" y1="70.77" x2="29.17" y2="72.54"/><line class="cls-2" x1="94.63" y1="51.26" x2="84.48" y2="54.57"/><line class="cls-2" x1="47.95" y1="81.1" x2="41.67" y2="89.74"/><line class="cls-2" x1="82.13" y1="34.06" x2="78.99" y2="38.38"/><line class="cls-2" x1="50.1" y1="61.9" x2="46.43" y2="61.9"/><line class="cls-2" x1="77.37" y1="61.9" x2="73.7" y2="61.9"/></g></g></svg>