<svg id="Layer_1" data-name="Layer 1" xmlns="http://www.w3.org/2000/svg" viewBox="0 0 500 500"><defs><style>.cls-1{fill:#9ff66a;}</style></defs><title>K-logo_4</title><path class="cls-1" d="M450.47,160.14H411.93a4.07,4.07,0,0,0-4.07,4.06v1.68H371.45a4.1,4.1,0,0,0-3.27,1.63l-12.81,17a4.08,4.08,0,0,0,3.28,6.52h49.21v1.68a4.07,4.07,0,0,0,4.07,4.06h38.54a4.07,4.07,0,0,0,4.08-4.06V164.2A4.07,4.07,0,0,0,450.47,160.14Z"/><path class="cls-1" d="M383.35,123.46a4.08,4.08,0,0,0-4.09-4.07H270.84a4.07,4.07,0,0,0-3.27,1.63l-221,293.46A4.07,4.07,0,0,0,49.86,421H158.27a4.09,4.09,0,0,0,3.27-1.63L382.4,126.06A4,4,0,0,0,383.35,123.46Z"/><path class="cls-1" d="M296.82,262.39,192.62,400.21a4.06,4.06,0,0,0,3.26,6.52H347.15a32.3,32.3,0,0,0,26-51.71l-69.75-92.63a4.1,4.1,0,0,0-3.27-1.63h0A4.07,4.07,0,0,0,296.82,262.39Zm-73.5,134a7.6,7.6,0,1,1,7.62-7.6A7.62,7.62,0,0,1,223.32,396.43Zm41.46.55a22.79,22.79,0,1,1,22.88-22.79A22.83,22.83,0,0,1,264.78,397ZM347.7,351.4a22.79,22.79,0,1,1-22.88,22.79A22.84,22.84,0,0,1,347.7,351.4Zm-41.46,29.83a7.6,7.6,0,1,1-7.63,7.6A7.62,7.62,0,0,1,306.24,381.23Z"/><path class="cls-1" d="M187.7,414.89a6,6,0,0,0,.38,2,6.11,6.11,0,0,0,5.76,4.08H202a6.13,6.13,0,0,0,5.77-4.08h12.46A6.11,6.11,0,0,0,226,421h16a6.13,6.13,0,0,0,5.77-4.08h12.46A6.13,6.13,0,0,0,266,421h16a6.11,6.11,0,0,0,5.76-4.08h12.46A6.13,6.13,0,0,0,306,421h16a6.13,6.13,0,0,0,5.77-4.08H340.2A6.11,6.11,0,0,0,346,421h2.37a47.86,47.86,0,0,0,15.36-2.49,6.11,6.11,0,0,0,4.12-6.3,42.49,42.49,0,0,0,10.7-7.71,5.94,5.94,0,0,0,7.22-1.9,47.69,47.69,0,0,0,8.06-16.29,6.1,6.1,0,0,0-2.9-6.9,42.13,42.13,0,0,0-.37-13.12A6.1,6.1,0,0,0,393,359.2,47.59,47.59,0,0,0,386,346l-1.72-2.28a6.14,6.14,0,0,0-6.73-2.15L370,331.65a6.08,6.08,0,0,0-.18-7l-9.6-12.74a6.14,6.14,0,0,0-6.73-2.15l-7.48-9.93a6.08,6.08,0,0,0-.18-7L336.27,280a6.14,6.14,0,0,0-6.73-2.15l-7.53-10a6.09,6.09,0,0,0-.19-7l-4.91-6.52a6.14,6.14,0,0,0-6.73-2.15,6,6,0,0,0-1.86.92l-1.64,1.23,4,5.36,8,10.65,7.53,10,16.52,21.93,7.47,9.93,16.52,21.93,7.47,9.92,5.18,6.88a38.82,38.82,0,0,1,7.18,16.3,37.06,37.06,0,0,1,.32,11.47,38.72,38.72,0,0,1-11.46,23.18,37.46,37.46,0,0,1-9.28,6.7,39,39,0,0,1-17.86,4.3H187.7Z"/><ellipse class="cls-1" cx="347.7" cy="374.19" rx="7" ry="6.98"/><ellipse class="cls-1" cx="264.6" cy="374.19" rx="7" ry="6.98"/><path class="cls-1" d="M162.09,184.6V138.73c0-31.28-24.13-58.19-55.5-59.66a58.22,58.22,0,0,0-61.14,58V377.93a4.6,4.6,0,0,0,8.28,2.75l34.51-45.83L217.06,163.78a4.58,4.58,0,0,0-3.68-7.33l-40.23,0a4.58,4.58,0,0,0-4.59,4.58v23.58a3.25,3.25,0,1,1-6.47,0Zm-25.92-49.89a4.32,4.32,0,0,1,8.64,0v27.76a4.32,4.32,0,0,1-8.64,0Zm-25.92,0a4.32,4.32,0,0,1,8.64,0v27.76a4.32,4.32,0,0,1-8.64,0Z"/></svg>